# This file uses centimeters as units for non-parametric coordinates.

v -0.300748 -0.000000 0.779176
v -0.585978 -0.000000 0.871853
v -0.585979 -0.000000 1.171762
v -0.300748 -0.000000 1.264439
v -0.124466 -0.000000 1.021807
v -0.300748 2.579541 0.779176
v -0.585978 2.579541 0.871853
v -0.585979 2.579541 1.171762
v -0.300748 2.579541 1.264439
v -0.124466 2.579541 1.021807
v -0.379584 -0.000000 1.021807
v -0.379584 2.579541 1.021807
vt 0.019467 0.288021
vt 0.019467 0.976271
vt 0.142040 0.288021
vt 0.142040 0.976271
vt 0.271299 0.288021
vt 0.271299 0.976271
vt 0.414868 0.976271
vt 0.722349 0.920911
vt 0.875479 0.969649
vt 0.687695 0.288021
vt 0.558437 0.288021
vt 0.833155 0.842052
vt 0.414868 0.288021
vt 0.687695 0.976271
vt 0.558437 0.976271
vt 0.722349 0.763193
vt 0.875479 0.714455
vt 0.970119 0.842052
vt 0.875479 0.969649
vt 0.722349 0.920911
vt 0.833155 0.842052
vt 0.722349 0.763193
vt 0.875479 0.714455
vt 0.970119 0.842052
vn -0.309017 0.000000 -0.951057
vn -0.309017 0.000000 -0.951057
vn -0.309017 0.000000 -0.951057
vn -0.309017 0.000000 -0.951057
vn -1.000000 0.000000 -0.000000
vn -1.000000 0.000000 -0.000000
vn -1.000000 0.000000 -0.000000
vn -1.000000 0.000000 -0.000000
vn -0.309017 0.000000 0.951057
vn -0.309017 0.000000 0.951057
vn -0.309017 0.000000 0.951057
vn -0.309017 0.000000 0.951057
vn 0.809017 0.000000 0.587785
vn 0.809017 0.000000 0.587785
vn 0.809017 0.000000 0.587785
vn 0.809017 0.000000 0.587785
vn 0.809017 0.000000 -0.587785
vn 0.809017 0.000000 -0.587785
vn 0.809017 0.000000 -0.587785
vn 0.809017 0.000000 -0.587785
vn 0.000000 -1.000000 0.000000
vn 0.000000 -1.000000 0.000000
vn 0.000000 -1.000000 -0.000000
vn 0.000000 -1.000000 -0.000000
vn 0.000000 -1.000000 -0.000000
vn 0.000000 -1.000000 0.000000
vn 0.000000 1.000000 -0.000000
vn 0.000000 1.000000 -0.000000
vn 0.000000 1.000000 0.000000
vn 0.000000 1.000000 0.000000
vn 0.000000 1.000000 0.000001
vn 0.000000 1.000000 0.000000
s off
f 1/11/1 2/10/2 7/14/3 6/15/4
f 2/1/5 3/3/6 8/4/7 7/2/8
f 3/3/9 4/5/10 9/6/11 8/4/12
f 4/5/13 5/13/14 10/7/15 9/6/16
f 5/13/17 1/11/18 6/15/19 10/7/20
s 1
f 2/8/21 1/9/22 11/12/23
f 3/16/24 2/8/21 11/12/23
f 4/17/25 3/16/24 11/12/23
f 5/18/26 4/17/25 11/12/23
f 1/9/22 5/18/26 11/12/23
s 2
f 6/19/27 7/20/28 12/21/29
f 7/20/28 8/22/30 12/21/29
f 8/22/30 9/23/31 12/21/29
f 9/23/31 10/24/32 12/21/29
f 10/24/32 6/19/27 12/21/29
