# This file uses centimeters as units for non-parametric coordinates.

v -2.697637 0.000000 3.283260
v 5.920799 0.000000 3.283260
v -2.697637 0.202776 3.283260
v 5.920799 0.202776 3.283260
v -2.697637 0.202776 -0.162466
v 5.920799 0.202776 -0.162466
v -2.697637 0.000000 -0.162466
v 5.920799 0.000000 -0.162466
vt 0.001850 0.998008
vt 0.001850 0.001992
vt 0.025284 0.001992
vt 0.025284 0.998008
vt 0.030987 0.998008
vt 0.030987 0.001992
vt 0.429203 0.001992
vt 0.429203 0.998008
vt 0.436379 0.998008
vt 0.436379 0.001992
vt 0.459813 0.001992
vt 0.459813 0.998008
vt 0.467145 0.998008
vt 0.467145 0.001992
vt 0.865361 0.001992
vt 0.865361 0.998008
vt 0.872537 0.400208
vt 0.872537 0.001992
vt 0.895971 0.001992
vt 0.895971 0.400208
vt 0.903309 0.400208
vt 0.903309 0.001992
vt 0.926743 0.001992
vt 0.926743 0.400208
vn 0.000000 0.000000 1.000000
vn 0.000000 0.000000 1.000000
vn 0.000000 0.000000 1.000000
vn 0.000000 0.000000 1.000000
vn 0.000000 1.000000 0.000000
vn 0.000000 1.000000 0.000000
vn 0.000000 1.000000 0.000000
vn 0.000000 1.000000 0.000000
vn 0.000000 0.000000 -1.000000
vn 0.000000 0.000000 -1.000000
vn 0.000000 0.000000 -1.000000
vn 0.000000 0.000000 -1.000000
vn 0.000000 -1.000000 0.000000
vn 0.000000 -1.000000 0.000000
vn 0.000000 -1.000000 0.000000
vn 0.000000 -1.000000 0.000000
vn 1.000000 0.000000 0.000000
vn 1.000000 0.000000 0.000000
vn 1.000000 0.000000 0.000000
vn 1.000000 0.000000 0.000000
vn -1.000000 0.000000 0.000000
vn -1.000000 0.000000 0.000000
vn -1.000000 0.000000 0.000000
vn -1.000000 0.000000 0.000000
s off
f 1/1/1 2/2/2 4/3/3 3/4/4
f 3/5/5 4/6/6 6/7/7 5/8/8
f 5/9/9 6/10/10 8/11/11 7/12/12
f 7/13/13 8/14/14 2/15/15 1/16/16
f 2/17/17 8/18/18 6/19/19 4/20/20
f 7/21/21 1/22/22 3/23/23 5/24/24
