# This file uses centimeters as units for non-parametric coordinates.

v -0.927854 0.520557 1.451682
v 0.927854 0.520557 1.451682
v -0.313883 0.000000 0.000000
v 0.313883 0.000000 0.000000
v -0.030531 0.078435 2.215714
v 0.030531 0.078435 2.215714
v 0.577151 0.296992 0.371878
v -0.577151 0.296992 0.371878
v 0.000000 0.520557 1.451682
v 0.479192 0.299497 1.833697
v -0.479192 0.299497 1.833697
v -0.927854 0.520557 1.451682
v 0.927854 0.520557 1.451682
v -0.313883 0.000000 0.000000
v 0.313883 0.000000 0.000000
v -0.030531 0.078435 2.215714
v 0.030531 0.078435 2.215714
v 0.577151 0.296992 0.371878
v -0.577151 0.296992 0.371878
v 0.000000 0.520557 1.451682
v 0.479192 0.299497 1.833697
v -0.479192 0.299497 1.833697
vt 0.196168 0.832190
vt 0.277867 0.832190
vt 0.236398 0.793221
vt 0.359565 0.832190
vt 0.319336 0.793221
vt 0.244116 0.962243
vt 0.313617 0.962243
vt 0.339368 0.924764
vt 0.216366 0.924764
vt 0.280509 0.751753
vt 0.275225 0.751753
vt 0.196168 0.832190
vt 0.236398 0.793221
vt 0.277867 0.832190
vt 0.359565 0.832190
vt 0.319336 0.793221
vt 0.244116 0.962243
vt 0.216366 0.924764
vt 0.339368 0.924764
vt 0.313617 0.962243
vt 0.280509 0.751753
vt 0.275225 0.751753
vn 0.000000 -0.987193 -0.159531
vn 0.000000 -0.987193 -0.159531
vn 0.000000 -0.865530 -0.500856
vn 0.000000 -0.987193 -0.159531
vn 0.000000 -0.865530 -0.500856
vn 0.000000 -0.987193 -0.159531
vn 0.000000 -0.781391 0.624042
vn 0.000000 -0.781391 0.624042
vn 0.000000 -0.936095 0.351747
vn 0.000000 -0.936095 0.351747
vn 0.000000 -0.865530 -0.500856
vn 0.000000 -0.865530 -0.500856
vn 0.000000 -0.865530 -0.500856
vn 0.000000 -0.987193 -0.159531
vn 0.000000 -0.865530 -0.500856
vn 0.000000 -0.936095 0.351747
vn 0.000000 -0.987193 -0.159531
vn 0.000000 -0.987193 -0.159531
vn 0.000000 -0.936095 0.351747
vn 0.000000 -0.936095 0.351747
vn 0.000000 -0.987193 -0.159531
vn 0.000000 -0.987193 -0.159531
vn 0.000000 -0.987193 -0.159531
vn 0.000000 -0.936095 0.351747
vn 0.000000 0.987193 0.159531
vn 0.000000 0.865530 0.500856
vn 0.000000 0.987193 0.159531
vn 0.000000 0.987193 0.159531
vn 0.000000 0.987193 0.159531
vn 0.000000 0.865530 0.500856
vn 0.000000 0.781391 -0.624042
vn 0.000000 0.936095 -0.351747
vn 0.000000 0.936095 -0.351747
vn 0.000000 0.781391 -0.624042
vn 0.000000 0.865530 0.500856
vn 0.000000 0.865530 0.500856
vn 0.000000 0.987193 0.159531
vn 0.000000 0.865530 0.500856
vn 0.000000 0.865530 0.500856
vn 0.000000 0.936095 -0.351747
vn 0.000000 0.987193 0.159531
vn 0.000000 0.987193 0.159531
vn 0.000000 0.936095 -0.351747
vn 0.000000 0.987193 0.159531
vn 0.000000 0.936095 -0.351747
vn 0.000000 0.987193 0.159531
vn 0.000000 0.936095 -0.351747
vn 0.000000 0.987193 0.159531
s off
f 1/1/1 9/2/2 11/3/3
f 2/4/4 10/5/5 9/2/6
f 3/6/7 4/7/8 7/8/9 8/9/10
f 6/10/11 5/11/12 11/3/13 9/2/14 10/5/15
f 7/8/16 2/4/17 9/2/18
f 8/9/19 7/8/20 9/2/21
f 9/2/22 1/1/23 8/9/24
f 12/12/25 22/13/26 20/14/27
f 13/15/28 20/14/29 21/16/30
f 14/17/31 19/18/32 18/19/33 15/20/34
f 17/21/35 21/16/36 20/14/37 22/13/38 16/22/39
f 18/19/40 20/14/41 13/15/42
f 19/18/43 20/14/44 18/19/45
f 20/14/46 19/18/47 12/12/48
v 1.345997 0.497624 1.086249
v 1.554858 0.497624 -0.757668
v -0.035328 0.000000 0.311889
v 0.035328 0.000000 -0.311889
v 2.199153 0.043520 0.279825
v 2.206026 0.043520 0.219151
v 0.439076 0.291097 -0.531107
v 0.309159 0.291097 0.615860
v 1.450428 0.497624 0.164290
v 1.880442 0.270572 -0.269258
v 1.772575 0.270572 0.683036
v 1.345997 0.497624 1.086249
v 1.554858 0.497624 -0.757668
v -0.035328 0.000000 0.311889
v 0.035328 0.000000 -0.311889
v 2.199153 0.043520 0.279825
v 2.206026 0.043520 0.219151
v 0.439076 0.291097 -0.531107
v 0.309159 0.291097 0.615860
v 1.450428 0.497624 0.164290
v 1.880442 0.270572 -0.269258
v 1.772575 0.270572 0.683036
vt 0.196168 0.832190
vt 0.277867 0.832190
vt 0.236398 0.793221
vt 0.359565 0.832190
vt 0.319336 0.793221
vt 0.244116 0.962243
vt 0.313617 0.962243
vt 0.339368 0.924764
vt 0.216366 0.924764
vt 0.280509 0.751753
vt 0.275225 0.751753
vt 0.196168 0.832190
vt 0.236398 0.793221
vt 0.277867 0.832190
vt 0.359565 0.832190
vt 0.319336 0.793221
vt 0.244116 0.962243
vt 0.216366 0.924764
vt 0.339368 0.924764
vt 0.313617 0.962243
vt 0.280509 0.751753
vt 0.275225 0.751753
vn -0.173950 -0.984557 -0.019703
vn -0.173950 -0.984557 -0.019703
vn -0.511161 -0.857533 -0.057899
vn -0.173950 -0.984557 -0.019703
vn -0.511161 -0.857533 -0.057899
vn -0.173950 -0.984557 -0.019703
vn 0.607768 -0.791125 0.068842
vn 0.607768 -0.791125 0.068842
vn 0.334815 -0.941520 0.037925
vn 0.334815 -0.941520 0.037925
vn -0.511161 -0.857533 -0.057899
vn -0.511161 -0.857533 -0.057899
vn -0.511161 -0.857533 -0.057899
vn -0.173950 -0.984557 -0.019703
vn -0.511161 -0.857533 -0.057899
vn 0.334815 -0.941520 0.037925
vn -0.173950 -0.984557 -0.019703
vn -0.173950 -0.984557 -0.019703
vn 0.334815 -0.941520 0.037925
vn 0.334815 -0.941520 0.037925
vn -0.173950 -0.984557 -0.019703
vn -0.173950 -0.984557 -0.019703
vn -0.173950 -0.984557 -0.019703
vn 0.334815 -0.941520 0.037925
vn 0.173950 0.984557 0.019703
vn 0.511161 0.857533 0.057899
vn 0.173950 0.984557 0.019703
vn 0.173950 0.984557 0.019703
vn 0.173950 0.984557 0.019703
vn 0.511161 0.857533 0.057899
vn -0.607768 0.791125 -0.068842
vn -0.334815 0.941520 -0.037925
vn -0.334815 0.941520 -0.037925
vn -0.607768 0.791125 -0.068842
vn 0.511161 0.857533 0.057899
vn 0.511161 0.857533 0.057899
vn 0.173950 0.984557 0.019703
vn 0.511161 0.857533 0.057899
vn 0.511161 0.857533 0.057899
vn -0.334815 0.941520 -0.037925
vn 0.173950 0.984557 0.019703
vn 0.173950 0.984557 0.019703
vn -0.334815 0.941520 -0.037925
vn 0.173950 0.984557 0.019703
vn -0.334815 0.941520 -0.037925
vn 0.173950 0.984557 0.019703
vn -0.334815 0.941520 -0.037925
vn 0.173950 0.984557 0.019703
s off
f 23/23/49 31/24/50 33/25/51
f 24/26/52 32/27/53 31/24/54
f 25/28/55 26/29/56 29/30/57 30/31/58
f 28/32/59 27/33/60 33/25/61 31/24/62 32/27/63
f 29/30/64 24/26/65 31/24/66
f 30/31/67 29/30/68 31/24/69
f 31/24/70 23/23/71 30/31/72
f 34/34/73 44/35/74 42/36/75
f 35/37/76 42/36/77 43/38/78
f 36/39/79 41/40/80 40/41/81 37/42/82
f 39/43/83 43/38/84 42/36/85 44/35/86 38/44/87
f 40/41/88 42/36/89 35/37/90
f 41/40/91 42/36/92 40/41/93
f 42/36/94 41/40/95 34/34/96
v -1.192943 0.726333 -1.135166
v -1.492342 0.726259 0.696230
v 0.050642 0.000012 -0.309771
v -0.050642 -0.000012 0.309771
v -2.147212 0.400081 -0.381950
v -2.157064 0.400079 -0.321688
v -0.413559 0.347931 0.517217
v -0.227324 0.347976 -0.621962
v -1.342643 0.726296 -0.219468
v -1.824703 0.563170 0.187271
v -1.670077 0.563208 -0.758557
v -1.192943 0.726333 -1.135166
v -1.492342 0.726259 0.696230
v 0.050642 0.000012 -0.309771
v -0.050642 -0.000012 0.309771
v -2.147212 0.400081 -0.381950
v -2.157064 0.400079 -0.321688
v -0.413559 0.347931 0.517217
v -0.227324 0.347976 -0.621962
v -1.342643 0.726296 -0.219468
v -1.824703 0.563170 0.187271
v -1.670077 0.563208 -0.758557
vt 0.196168 0.832190
vt 0.277867 0.832190
vt 0.236398 0.793221
vt 0.359565 0.832190
vt 0.319336 0.793221
vt 0.244116 0.962243
vt 0.313617 0.962243
vt 0.339368 0.924764
vt 0.216366 0.924764
vt 0.280509 0.751753
vt 0.275225 0.751753
vt 0.196168 0.832190
vt 0.236398 0.793221
vt 0.277867 0.832190
vt 0.359565 0.832190
vt 0.319336 0.793221
vt 0.244116 0.962243
vt 0.216366 0.924764
vt 0.339368 0.924764
vt 0.313617 0.962243
vt 0.280509 0.751753
vt 0.275225 0.751753
vn 0.013974 -0.999900 0.002244
vn 0.013974 -0.999900 0.002244
vn 0.364716 -0.929210 0.059587
vn 0.013974 -0.999900 0.002244
vn 0.364716 -0.929210 0.059587
vn 0.013974 -0.999900 0.002244
vn -0.721540 -0.682246 -0.117986
vn -0.721540 -0.682246 -0.117986
vn -0.477893 -0.874934 -0.078162
vn -0.477893 -0.874934 -0.078162
vn 0.364716 -0.929210 0.059587
vn 0.364716 -0.929210 0.059587
vn 0.364716 -0.929210 0.059587
vn 0.013974 -0.999900 0.002244
vn 0.364716 -0.929210 0.059587
vn -0.477893 -0.874934 -0.078162
vn 0.013974 -0.999900 0.002244
vn 0.013974 -0.999900 0.002244
vn -0.477893 -0.874934 -0.078162
vn -0.477893 -0.874934 -0.078162
vn 0.013974 -0.999900 0.002244
vn 0.013974 -0.999900 0.002244
vn 0.013974 -0.999900 0.002244
vn -0.477893 -0.874934 -0.078162
vn -0.013974 0.999900 -0.002244
vn -0.364716 0.929210 -0.059587
vn -0.013974 0.999900 -0.002244
vn -0.013974 0.999900 -0.002244
vn -0.013974 0.999900 -0.002244
vn -0.364716 0.929210 -0.059587
vn 0.721540 0.682246 0.117986
vn 0.477893 0.874934 0.078162
vn 0.477893 0.874934 0.078162
vn 0.721540 0.682246 0.117986
vn -0.364716 0.929210 -0.059587
vn -0.364716 0.929210 -0.059587
vn -0.013974 0.999900 -0.002244
vn -0.364716 0.929210 -0.059587
vn -0.364716 0.929210 -0.059587
vn 0.477893 0.874934 0.078162
vn -0.013974 0.999900 -0.002244
vn -0.013974 0.999900 -0.002244
vn 0.477893 0.874934 0.078162
vn -0.013974 0.999900 -0.002244
vn 0.477893 0.874934 0.078162
vn -0.013974 0.999900 -0.002244
vn 0.477893 0.874934 0.078162
vn -0.013974 0.999900 -0.002244
s off
f 45/45/97 53/46/98 55/47/99
f 46/48/100 54/49/101 53/46/102
f 47/50/103 48/51/104 51/52/105 52/53/106
f 50/54/107 49/55/108 55/47/109 53/46/110 54/49/111
f 51/52/112 46/48/113 53/46/114
f 52/53/115 51/52/116 53/46/117
f 53/46/118 45/45/119 52/53/120
f 56/56/121 66/57/122 64/58/123
f 57/59/124 64/58/125 65/60/126
f 58/61/127 63/62/128 62/63/129 59/64/130
f 61/65/131 65/60/132 64/58/133 66/57/134 60/66/135
f 62/63/136 64/58/137 57/59/138
f 63/62/139 64/58/140 62/63/141
f 64/58/142 63/62/143 56/56/144
v 1.133752 0.434637 -1.328522
v -0.699740 0.637102 -1.530927
v 0.310125 -0.034246 0.034236
v -0.310125 0.034246 -0.034236
v 0.284738 0.102809 -2.196549
v 0.224407 0.109471 -2.203209
v -0.497136 0.362894 -0.425164
v 0.643347 0.236955 -0.299262
v 0.217006 0.535870 -1.429725
v -0.237666 0.373287 -1.867068
v 0.709245 0.268724 -1.762535
v 1.133752 0.434637 -1.328522
v -0.699740 0.637102 -1.530927
v 0.310125 -0.034246 0.034236
v -0.310125 0.034246 -0.034236
v 0.284738 0.102809 -2.196549
v 0.224407 0.109471 -2.203209
v -0.497136 0.362894 -0.425164
v 0.643347 0.236955 -0.299262
v 0.217006 0.535870 -1.429725
v -0.237666 0.373287 -1.867068
v 0.709245 0.268724 -1.762535
vt 0.196168 0.832190
vt 0.277867 0.832190
vt 0.236398 0.793221
vt 0.359565 0.832190
vt 0.319336 0.793221
vt 0.244116 0.962243
vt 0.313617 0.962243
vt 0.339368 0.924764
vt 0.216366 0.924764
vt 0.280509 0.751753
vt 0.275225 0.751753
vt 0.196168 0.832190
vt 0.236398 0.793221
vt 0.277867 0.832190
vt 0.359565 0.832190
vt 0.319336 0.793221
vt 0.244116 0.962243
vt 0.216366 0.924764
vt 0.339368 0.924764
vt 0.313617 0.962243
vt 0.280509 0.751753
vt 0.275225 0.751753
vn -0.123386 -0.983248 0.134158
vn -0.123386 -0.983248 0.134158
vn -0.148288 -0.866663 0.476347
vn -0.123386 -0.983248 0.134158
vn -0.148288 -0.866663 0.476347
vn -0.123386 -0.983248 0.134158
vn -0.014300 -0.768726 -0.639418
vn -0.014300 -0.768726 -0.639418
vn -0.061112 -0.925957 -0.372651
vn -0.061112 -0.925957 -0.372651
vn -0.148288 -0.866663 0.476347
vn -0.148288 -0.866663 0.476347
vn -0.148288 -0.866663 0.476347
vn -0.123386 -0.983248 0.134158
vn -0.148288 -0.866663 0.476347
vn -0.061112 -0.925957 -0.372651
vn -0.123386 -0.983248 0.134158
vn -0.123386 -0.983248 0.134158
vn -0.061112 -0.925957 -0.372651
vn -0.061112 -0.925957 -0.372651
vn -0.123386 -0.983248 0.134158
vn -0.123386 -0.983248 0.134158
vn -0.123386 -0.983248 0.134158
vn -0.061112 -0.925957 -0.372651
vn 0.123386 0.983248 -0.134158
vn 0.148288 0.866663 -0.476347
vn 0.123386 0.983248 -0.134158
vn 0.123386 0.983248 -0.134158
vn 0.123386 0.983248 -0.134158
vn 0.148288 0.866663 -0.476347
vn 0.014300 0.768726 0.639418
vn 0.061112 0.925957 0.372651
vn 0.061112 0.925957 0.372651
vn 0.014300 0.768726 0.639418
vn 0.148288 0.866663 -0.476347
vn 0.148288 0.866663 -0.476347
vn 0.123386 0.983248 -0.134158
vn 0.148288 0.866663 -0.476347
vn 0.148288 0.866663 -0.476347
vn 0.061112 0.925957 0.372651
vn 0.123386 0.983248 -0.134158
vn 0.123386 0.983248 -0.134158
vn 0.061112 0.925957 0.372651
vn 0.123386 0.983248 -0.134158
vn 0.061112 0.925957 0.372651
vn 0.123386 0.983248 -0.134158
vn 0.061112 0.925957 0.372651
vn 0.123386 0.983248 -0.134158
s off
f 67/67/145 75/68/146 77/69/147
f 68/70/148 76/71/149 75/68/150
f 69/72/151 70/73/152 73/74/153 74/75/154
f 72/76/155 71/77/156 77/69/157 75/68/158 76/71/159
f 73/74/160 68/70/161 75/68/162
f 74/75/163 73/74/164 75/68/165
f 75/68/166 67/67/167 74/75/168
f 78/78/169 88/79/170 86/80/171
f 79/81/172 86/80/173 87/82/174
f 80/83/175 85/84/176 84/85/177 81/86/178
f 83/87/179 87/82/180 86/80/181 88/79/182 82/88/183
f 84/85/184 86/80/185 79/81/186
f 85/84/187 86/80/188 84/85/189
f 86/80/190 85/84/191 78/78/192
v 0.156555 1.033372 1.465233
v 1.404119 1.121975 0.094325
v -0.211019 -0.014987 0.231882
v 0.211019 0.014987 -0.231882
v 1.412454 0.993394 1.390904
v 1.453505 0.996309 1.345794
v 0.532620 0.452163 -0.267329
v -0.243399 0.397050 0.585413
v 0.780337 1.077673 0.779779
v 1.428811 1.059142 0.720060
v 0.784505 1.013383 1.428067
v 0.156555 1.033372 1.465233
v 1.404119 1.121975 0.094325
v -0.211019 -0.014987 0.231882
v 0.211019 0.014987 -0.231882
v 1.412454 0.993394 1.390904
v 1.453505 0.996309 1.345794
v 0.532620 0.452163 -0.267329
v -0.243399 0.397050 0.585413
v 0.780337 1.077673 0.779779
v 1.428811 1.059142 0.720060
v 0.784505 1.013383 1.428067
vt 0.196168 0.832190
vt 0.277867 0.832190
vt 0.236398 0.793221
vt 0.359565 0.832190
vt 0.319336 0.793221
vt 0.244116 0.962243
vt 0.313617 0.962243
vt 0.339368 0.924764
vt 0.216366 0.924764
vt 0.280509 0.751753
vt 0.275225 0.751753
vt 0.196168 0.832190
vt 0.236398 0.793221
vt 0.277867 0.832190
vt 0.359565 0.832190
vt 0.319336 0.793221
vt 0.244116 0.962243
vt 0.216366 0.924764
vt 0.339368 0.924764
vt 0.313617 0.962243
vt 0.280509 0.751753
vt 0.275225 0.751753
vn 0.228458 -0.962591 0.145690
vn 0.228458 -0.962591 0.145690
vn -0.037477 -0.994443 -0.098377
vn 0.228458 -0.962591 0.145690
vn -0.037477 -0.994443 -0.098377
vn 0.228458 -0.962591 0.145690
vn 0.675060 -0.449138 0.585295
vn 0.675060 -0.449138 0.585295
vn 0.547970 -0.703075 0.453227
vn 0.547970 -0.703075 0.453227
vn -0.037477 -0.994443 -0.098377
vn -0.037477 -0.994443 -0.098377
vn -0.037477 -0.994443 -0.098377
vn 0.228458 -0.962591 0.145690
vn -0.037477 -0.994443 -0.098377
vn 0.547970 -0.703075 0.453227
vn 0.228458 -0.962591 0.145690
vn 0.228458 -0.962591 0.145690
vn 0.547970 -0.703075 0.453227
vn 0.547970 -0.703075 0.453227
vn 0.228458 -0.962591 0.145690
vn 0.228458 -0.962591 0.145690
vn 0.228458 -0.962591 0.145690
vn 0.547970 -0.703075 0.453227
vn -0.228458 0.962591 -0.145690
vn 0.037477 0.994443 0.098377
vn -0.228458 0.962591 -0.145690
vn -0.228458 0.962591 -0.145690
vn -0.228458 0.962591 -0.145690
vn 0.037477 0.994443 0.098377
vn -0.675060 0.449138 -0.585295
vn -0.547970 0.703075 -0.453227
vn -0.547970 0.703075 -0.453227
vn -0.675060 0.449138 -0.585295
vn 0.037477 0.994443 0.098377
vn 0.037477 0.994443 0.098377
vn -0.228458 0.962591 -0.145690
vn 0.037477 0.994443 0.098377
vn 0.037477 0.994443 0.098377
vn -0.547970 0.703075 -0.453227
vn -0.228458 0.962591 -0.145690
vn -0.228458 0.962591 -0.145690
vn -0.547970 0.703075 -0.453227
vn -0.228458 0.962591 -0.145690
vn -0.547970 0.703075 -0.453227
vn -0.228458 0.962591 -0.145690
vn -0.547970 0.703075 -0.453227
vn -0.228458 0.962591 -0.145690
s off
f 89/89/193 97/90/194 99/91/195
f 90/92/196 98/93/197 97/90/198
f 91/94/199 92/95/200 95/96/201 96/97/202
f 94/98/203 93/99/204 99/91/205 97/90/206 98/93/207
f 95/96/208 90/92/209 97/90/210
f 96/97/211 95/96/212 97/90/213
f 97/90/214 89/89/215 96/97/216
f 100/100/217 110/101/218 108/102/219
f 101/103/220 108/102/221 109/104/222
f 102/105/223 107/106/224 106/107/225 103/108/226
f 105/109/227 109/104/228 108/102/229 110/101/230 104/110/231
f 106/107/232 108/102/233 101/103/234
f 107/106/235 108/102/236 106/107/237
f 108/102/238 107/106/239 100/100/240
v -1.048110 1.126515 -0.912128
v -1.044798 1.102424 0.943421
v 0.082553 0.068690 -0.313856
v 0.083673 0.060541 0.313856
v -1.922892 1.009179 -0.014690
v -1.922783 1.008386 0.046367
v -0.140803 0.476482 0.582947
v -0.142863 0.491467 -0.571255
v -1.046454 1.114469 0.015646
v -1.483790 1.055406 0.494893
v -1.485500 1.067847 -0.463409
v -1.048110 1.126515 -0.912128
v -1.044798 1.102424 0.943421
v 0.082553 0.068690 -0.313856
v 0.083673 0.060541 0.313856
v -1.922892 1.009179 -0.014690
v -1.922783 1.008386 0.046367
v -0.140803 0.476482 0.582947
v -0.142863 0.491467 -0.571255
v -1.046454 1.114469 0.015646
v -1.483790 1.055406 0.494893
v -1.485500 1.067847 -0.463409
vt 0.196168 0.832190
vt 0.277867 0.832190
vt 0.236398 0.793221
vt 0.359565 0.832190
vt 0.319336 0.793221
vt 0.244116 0.962243
vt 0.313617 0.962243
vt 0.339368 0.924764
vt 0.216366 0.924764
vt 0.280509 0.751753
vt 0.275225 0.751753
vt 0.196168 0.832190
vt 0.236398 0.793221
vt 0.277867 0.832190
vt 0.359565 0.832190
vt 0.319336 0.793221
vt 0.244116 0.962243
vt 0.216366 0.924764
vt 0.339368 0.924764
vt 0.313617 0.962243
vt 0.280509 0.751753
vt 0.275225 0.751753
vn -0.241946 -0.970213 -0.012164
vn -0.241946 -0.970213 -0.012164
vn 0.119713 -0.992722 -0.013102
vn -0.241946 -0.970213 -0.012164
vn 0.119713 -0.992722 -0.013102
vn -0.241946 -0.970213 -0.012164
vn -0.881244 -0.472639 -0.004563
vn -0.881244 -0.472639 -0.004563
vn -0.691831 -0.722014 -0.008139
vn -0.691831 -0.722014 -0.008139
vn 0.119713 -0.992722 -0.013102
vn 0.119713 -0.992722 -0.013102
vn 0.119713 -0.992722 -0.013102
vn -0.241946 -0.970213 -0.012164
vn 0.119713 -0.992722 -0.013102
vn -0.691831 -0.722014 -0.008139
vn -0.241946 -0.970213 -0.012164
vn -0.241946 -0.970213 -0.012164
vn -0.691831 -0.722014 -0.008139
vn -0.691831 -0.722014 -0.008139
vn -0.241946 -0.970213 -0.012164
vn -0.241946 -0.970213 -0.012164
vn -0.241946 -0.970213 -0.012164
vn -0.691831 -0.722014 -0.008139
vn 0.241946 0.970213 0.012164
vn -0.119713 0.992722 0.013102
vn 0.241946 0.970213 0.012164
vn 0.241946 0.970213 0.012164
vn 0.241946 0.970213 0.012164
vn -0.119713 0.992722 0.013102
vn 0.881244 0.472639 0.004563
vn 0.691831 0.722014 0.008139
vn 0.691831 0.722014 0.008139
vn 0.881244 0.472639 0.004563
vn -0.119713 0.992722 0.013102
vn -0.119713 0.992722 0.013102
vn 0.241946 0.970213 0.012164
vn -0.119713 0.992722 0.013102
vn -0.119713 0.992722 0.013102
vn 0.691831 0.722014 0.008139
vn 0.241946 0.970213 0.012164
vn 0.241946 0.970213 0.012164
vn 0.691831 0.722014 0.008139
vn 0.241946 0.970213 0.012164
vn 0.691831 0.722014 0.008139
vn 0.241946 0.970213 0.012164
vn 0.691831 0.722014 0.008139
vn 0.241946 0.970213 0.012164
s off
f 111/111/241 119/112/242 121/113/243
f 112/114/244 120/115/245 119/112/246
f 113/116/247 114/117/248 117/118/249 118/119/250
f 116/120/251 115/121/252 121/113/253 119/112/254 120/115/255
f 117/118/256 112/114/257 119/112/258
f 118/119/259 117/118/260 119/112/261
f 119/112/262 111/111/263 118/119/264
f 122/122/265 132/123/266 130/124/267
f 123/125/268 130/124/269 131/126/270
f 124/127/271 129/128/272 128/129/273 125/130/274
f 127/131/275 131/126/276 130/124/277 132/123/278 126/132/279
f 128/129/280 130/124/281 123/125/282
f 129/128/283 130/124/284 128/129/285
f 130/124/286 129/128/287 122/122/288
v 1.346698 0.923924 -0.950902
v -0.444709 1.032040 -1.422943
v 0.386120 0.046328 0.079843
v -0.219894 0.082903 -0.079843
v 0.687752 0.772050 -2.012565
v 0.628806 0.775607 -2.028098
v -0.382922 0.488722 -0.403169
v 0.731383 0.421471 -0.109546
v 0.450995 0.977982 -1.186923
v 0.092049 0.903824 -1.725520
v 1.017225 0.847987 -1.481733
v 1.346698 0.923924 -0.950902
v -0.444709 1.032040 -1.422943
v 0.386120 0.046328 0.079843
v -0.219894 0.082903 -0.079843
v 0.687752 0.772050 -2.012565
v 0.628806 0.775607 -2.028098
v -0.382922 0.488722 -0.403169
v 0.731383 0.421471 -0.109546
v 0.450995 0.977982 -1.186923
v 0.092049 0.903824 -1.725520
v 1.017225 0.847987 -1.481733
vt 0.196168 0.832190
vt 0.277867 0.832190
vt 0.236398 0.793221
vt 0.359565 0.832190
vt 0.319336 0.793221
vt 0.244116 0.962243
vt 0.313617 0.962243
vt 0.339368 0.924764
vt 0.216366 0.924764
vt 0.280509 0.751753
vt 0.275225 0.751753
vt 0.196168 0.832190
vt 0.236398 0.793221
vt 0.277867 0.832190
vt 0.359565 0.832190
vt 0.319336 0.793221
vt 0.244116 0.962243
vt 0.216366 0.924764
vt 0.339368 0.924764
vt 0.313617 0.962243
vt 0.280509 0.751753
vt 0.275225 0.751753
vn -0.022680 -0.989802 -0.140631
vn -0.022680 -0.989802 -0.140631
vn -0.113836 -0.971143 0.209580
vn -0.022680 -0.989802 -0.140631
vn -0.113836 -0.971143 0.209580
vn -0.022680 -0.989802 -0.140631
vn 0.177325 -0.568696 -0.803207
vn 0.177325 -0.568696 -0.803207
vn 0.109410 -0.794591 -0.597206
vn 0.109410 -0.794591 -0.597206
vn -0.113836 -0.971143 0.209580
vn -0.113836 -0.971143 0.209580
vn -0.113836 -0.971143 0.209580
vn -0.022680 -0.989802 -0.140631
vn -0.113836 -0.971143 0.209580
vn 0.109410 -0.794591 -0.597206
vn -0.022680 -0.989802 -0.140631
vn -0.022680 -0.989802 -0.140631
vn 0.109410 -0.794591 -0.597206
vn 0.109410 -0.794591 -0.597206
vn -0.022680 -0.989802 -0.140631
vn -0.022680 -0.989802 -0.140631
vn -0.022680 -0.989802 -0.140631
vn 0.109410 -0.794591 -0.597206
vn 0.022680 0.989802 0.140631
vn 0.113836 0.971143 -0.209580
vn 0.022680 0.989802 0.140631
vn 0.022680 0.989802 0.140631
vn 0.022680 0.989802 0.140631
vn 0.113836 0.971143 -0.209580
vn -0.177325 0.568696 0.803207
vn -0.109410 0.794591 0.597206
vn -0.109410 0.794591 0.597206
vn -0.177325 0.568696 0.803207
vn 0.113836 0.971143 -0.209580
vn 0.113836 0.971143 -0.209580
vn 0.022680 0.989802 0.140631
vn 0.113836 0.971143 -0.209580
vn 0.113836 0.971143 -0.209580
vn -0.109410 0.794591 0.597206
vn 0.022680 0.989802 0.140631
vn 0.022680 0.989802 0.140631
vn -0.109410 0.794591 0.597206
vn 0.022680 0.989802 0.140631
vn -0.109410 0.794591 0.597206
vn 0.022680 0.989802 0.140631
vn -0.109410 0.794591 0.597206
vn 0.022680 0.989802 0.140631
s off
f 133/133/289 141/134/290 143/135/291
f 134/136/292 142/137/293 141/134/294
f 135/138/295 136/139/296 139/140/297 140/141/298
f 138/142/299 137/143/300 143/135/301 141/134/302 142/137/303
f 139/140/304 134/136/305 141/134/306
f 140/141/307 139/140/308 141/134/309
f 141/134/310 133/133/311 140/141/312
f 144/144/313 154/145/314 152/146/315
f 145/147/316 152/146/317 153/148/318
f 146/149/319 151/150/320 150/151/321 147/152/322
f 149/153/323 153/148/324 152/146/325 154/145/326 148/154/327
f 150/151/328 152/146/329 145/147/330
f 151/150/331 152/146/332 150/151/333
f 152/146/334 151/150/335 144/144/336
