# This file uses centimeters as units for non-parametric coordinates.

mtllib groundRock1.mtl
v -1.285003 0.000000 0.440800
v -1.000000 1.308000 0.440800
v 0.659645 1.273546 0.168619
v 1.000000 0.000000 0.440800
v -1.285003 0.000000 -0.440800
v -0.936761 1.254501 -0.335851
v 1.000000 1.308000 -0.440800
v 1.038519 0.000000 -0.440800
v 0.182075 1.551513 0.553905
v 0.267480 0.000000 0.708280
v 0.000000 0.000000 1.160058
v -0.216282 1.111719 0.823659
v -0.882505 1.217559 1.034566
v -1.285003 0.000000 1.160058
v -1.000000 0.654000 1.160058
v -0.185694 0.544166 1.029887
v -0.033189 0.574928 1.661818
v -0.823937 0.417673 1.487680
v -1.000000 0.000000 1.713632
v 0.000000 0.000000 1.713632
v 0.314542 1.621799 -0.408108
v 1.000000 0.781222 -0.485474
v 0.895747 0.621910 0.297302
v 1.272751 0.378608 -0.440800
v 1.518370 0.378608 0.440800
v 1.626252 0.000000 0.440800
v 1.626252 0.000000 -0.312108
v -1.000000 0.781222 -0.485474
v -1.000000 0.526778 -1.038913
v 0.910940 0.526778 -0.803105
v 1.109959 0.001643 -1.054509
v -1.000000 0.000000 -1.083587
v 0.143193 0.677812 0.485012
v -0.314850 0.910002 -0.292058
v -0.461075 1.853304 0.114781
v 1.000000 0.390611 -0.463137
vt 0.635157 0.738165
vt 0.641752 0.706238
vt 0.679949 0.717604
vt 0.618121 0.721129
vt 0.663978 0.700522
vt 0.607480 0.698796
vt 0.627872 0.694830
vt 0.616150 0.666440
vt 0.635691 0.663757
vt 0.553361 0.702310
vt 0.547415 0.751997
vt 0.532479 0.723191
vt 0.440680 0.771917
vt 0.432055 0.739193
vt 0.456128 0.728880
vt 0.470718 0.757474
vt 0.578760 0.628568
vt 0.576635 0.671195
vt 0.540172 0.659228
vt 0.587730 0.655063
vt 0.612016 0.629061
vt 0.637714 0.656827
vt 0.631971 0.767514
vt 0.654207 0.739043
vt 0.657716 0.757145
vt 0.518029 0.701083
vt 0.498385 0.679322
vt 0.527548 0.674633
vt 0.502217 0.650909
vt 0.548698 0.696853
vt 0.532242 0.650070
vt 0.475611 0.665563
vt 0.559500 0.680101
vt 0.475231 0.689095
vt 0.482640 0.643062
vt 0.447888 0.694052
vt 0.469173 0.630314
vt 0.457856 0.711794
vt 0.445447 0.673923
vt 0.444968 0.656997
vt 0.622208 0.771498
vt 0.642471 0.776928
vt 0.620828 0.794116
vt 0.700904 0.713080
vt 0.676758 0.697579
vt 0.702391 0.694771
vt 0.645879 0.662448
vt 0.713294 0.673430
vt 0.640842 0.637777
vt 0.709785 0.655328
vt 0.588980 0.674376
vt 0.580390 0.726511
vt 0.576382 0.699524
vt 0.604302 0.700049
vt 0.606131 0.739536
vt 0.570031 0.674376
vt 0.575032 0.716991
vt 0.554710 0.700049
vt 0.557457 0.739062
vt 0.619479 0.771498
vt 0.609910 0.788775
vt 0.607036 0.776660
vt 0.495151 0.724477
vt 0.483857 0.747569
vt 0.464913 0.731678
vt 0.481172 0.702310
vt 0.578543 0.763237
vt 0.561258 0.773004
vt 0.562475 0.740414
vt 0.659399 0.746328
vt 0.677061 0.739043
vt 0.674040 0.765964
vt 0.630544 0.753025
vt 0.618824 0.759417
vt 0.617376 0.750167
vt 0.604543 0.748556
vt 0.629062 0.740414
vt 0.606590 0.770621
vt 0.513028 0.748317
vt 0.510377 0.702310
vt 0.531130 0.751826
vt 0.496500 0.750753
vt 0.530088 0.764970
vt 0.501259 0.783722
vt 0.512320 0.752703
vt 0.526913 0.793593
vt 0.593300 0.747187
vt 0.603171 0.772840
vt 0.580115 0.740414
vt 0.643128 0.782766
vt 0.660961 0.764933
vt 0.656313 0.789539
vt 0.548740 0.752874
vt 0.559642 0.774216
vt 0.531687 0.779564
vt 0.556134 0.792318
vt 0.662311 0.790114
vt 0.662424 0.763383
vt 0.679257 0.777353
vn -0.955783 0.293543 0.017638
vn -0.676686 0.504377 0.536377
vn -0.759967 0.592620 0.266931
vn -0.681448 0.583045 -0.442366
vn -0.951415 0.241965 -0.190427
vn 0.426217 0.513217 0.744948
vn 0.405001 0.629859 0.662761
vn -0.086267 0.620501 0.779446
vn -0.271957 0.961971 0.025528
vn -0.477620 0.445325 -0.757340
vn 0.737132 0.247260 0.628887
vn 0.801913 0.389278 -0.453210
vn 0.709272 0.589492 -0.386564
vn 0.581834 0.176940 0.793827
vn 0.420565 0.454302 0.785325
vn 0.167838 0.248268 0.954041
vn 0.567800 0.346951 0.746477
vn 0.337121 0.202616 0.919400
vn -0.004707 0.317631 -0.948203
vn 0.128046 0.683019 -0.719089
vn 0.727234 0.068549 -0.682958
vn 0.568096 0.623999 -0.536556
vn 0.646786 -0.011622 -0.762583
vn 0.680029 0.516174 0.520697
vn 0.898837 0.364826 0.242886
vn -0.894541 0.389827 0.218705
vn -0.476644 0.509099 0.716679
vn -0.166920 0.687500 0.706740
vn 0.673847 0.362200 0.644003
vn 0.384728 0.765623 0.515564
vn 0.540047 0.439934 -0.717501
vn 0.702899 0.666720 0.247825
vn 0.806962 0.323722 -0.493980
vn -0.442999 0.482372 -0.755691
vn 0.478415 0.381769 -0.790804
vn -0.538984 0.071177 -0.839303
s 1
usemtl falling_rock_1:default1
f 1/1/1 15/2/2 2/3/3
f 1/10/1 28/11/4 5/12/5
f 2/13/3 12/14/6 9/15/7
f 2/3/3 15/2/2 13/5/8
f 2/17/3 28/18/4 1/19/1
f 2/17/3 35/21/9 6/20/10
f 3/23/11 22/24/12 7/25/13
f 3/26/11 33/27/14 23/28/15
f 4/31/16 23/28/15 10/29/17
f 4/41/16 26/42/18 23/43/15
f 6/20/10 28/18/4 2/17/3
f 6/44/10 34/45/19 28/46/4
f 6/20/10 35/21/9 21/22/20
f 7/51/13 9/52/7 3/53/11
f 7/56/13 34/57/19 21/58/20
f 8/60/21 30/61/22 36/62/23
f 9/63/7 12/64/6 33/65/14
f 9/63/7 33/65/14 3/66/11
f 9/15/7 35/16/9 2/13/3
f 10/29/17 16/32/24 11/35/25
f 10/29/17 23/28/15 33/27/14
f 12/34/6 2/38/3 13/36/8
f 12/34/6 13/36/8 16/32/24
f 14/4/26 19/6/27 15/2/2
f 15/2/2 1/1/1 14/4/26
f 15/39/2 16/32/24 13/36/8
f 15/39/2 18/40/28 16/32/24
f 16/32/24 20/37/29 11/35/25
f 16/32/24 33/27/14 12/34/6
f 17/67/30 16/68/24 18/69/28
f 17/70/30 20/71/29 16/72/24
f 18/7/28 15/2/2 19/6/27
f 18/7/28 20/8/29 17/9/30
f 19/6/27 20/8/29 18/7/28
f 21/54/20 9/52/7 7/51/13
f 21/58/20 34/57/19 6/59/10
f 21/54/20 35/55/9 9/52/7
f 22/73/12 24/74/31 36/75/23
f 22/79/12 34/80/19 7/81/13
f 23/28/15 22/30/12 3/26/11
f 23/28/15 24/33/31 22/30/12
f 24/83/31 25/84/32 27/85/33
f 25/87/32 23/88/15 26/89/18
f 25/84/32 24/83/31 23/86/15
f 26/90/18 27/91/33 25/92/32
f 27/78/33 8/76/21 24/74/31
f 28/93/4 29/94/34 5/95/5
f 29/48/34 28/46/4 30/47/22
f 30/97/22 8/98/21 31/99/35
f 30/47/22 31/49/35 29/48/34
f 30/82/22 34/80/19 22/79/12
f 32/96/36 5/95/5 29/94/34
f 32/50/36 29/48/34 31/49/35
f 33/27/14 16/32/24 10/29/17
f 34/45/19 30/47/22 28/46/4
f 36/75/23 24/74/31 8/76/21
f 36/75/23 30/77/22 22/73/12
