# This file uses centimeters as units for non-parametric coordinates.

mtllib leafLong.mtl
v -0.387200 1.266158 1.829335
v 0.387200 1.266158 1.829335
v -0.387200 0.000000 0.000000
v 0.387200 0.000000 0.000000
v -0.187947 0.992441 2.668558
v 0.187947 0.992441 2.668558
v 0.387200 0.724328 0.689455
v -0.387200 0.724328 0.689455
v -0.387200 1.266158 1.829335
v 0.387200 1.266158 1.829335
v -0.387200 0.000000 0.000000
v 0.387200 0.000000 0.000000
v -0.187947 0.992441 2.668558
v 0.187947 0.992441 2.668558
v 0.387200 0.724328 0.689455
v -0.387200 0.724328 0.689455
vt 0.356186 0.840422
vt 0.373022 0.777182
vt 0.404785 0.777182
vt 0.421621 0.840422
vt 0.421621 0.926319
vt 0.356186 0.926319
vt 0.356186 0.978274
vt 0.421621 0.978274
vt 0.356186 0.840422
vt 0.373022 0.777182
vt 0.404785 0.777182
vt 0.421621 0.840422
vt 0.421621 0.926319
vt 0.356186 0.926319
vt 0.356186 0.978274
vt 0.421621 0.978274
vn 0.000000 -0.997938 0.064180
vn 0.000000 -0.997938 0.064180
vn 0.000000 -0.950711 -0.310079
vn 0.000000 -0.950711 -0.310079
vn 0.000000 -0.809855 0.586631
vn 0.000000 -0.809855 0.586631
vn 0.000000 -0.689455 0.724328
vn 0.000000 -0.689455 0.724328
vn 0.000000 0.997938 -0.064180
vn 0.000000 0.950711 0.310079
vn 0.000000 0.950711 0.310079
vn 0.000000 0.997938 -0.064180
vn 0.000000 0.809855 -0.586631
vn 0.000000 0.809855 -0.586631
vn 0.000000 0.689455 -0.724328
vn 0.000000 0.689455 -0.724328
s 1
usemtl falling_rock_1:default1
f 1/1/1 2/4/2 6/3/3 5/2/4
f 2/4/2 1/1/1 8/6/5 7/5/6
f 3/7/7 4/8/8 7/5/6 8/6/5
s 2
f 9/9/9 13/10/10 14/11/11 10/12/12
f 10/12/12 15/13/13 16/14/14 9/9/9
f 11/15/15 16/14/14 15/13/13 12/16/16
