# This file uses centimeters as units for non-parametric coordinates.

mtllib leafRound.mtl
v -0.927854 0.810836 1.311833
v 0.927854 0.810836 1.311833
v -0.313883 0.000000 0.000000
v 0.313883 0.000000 0.000000
v -0.030531 0.537119 2.151056
v 0.030531 0.537119 2.151056
v 0.577151 0.367781 0.302050
v -0.577151 0.367781 0.302050
v 0.000000 0.810836 1.311833
v 0.479192 0.673978 1.731444
v -0.479192 0.673978 1.731444
v -0.927854 0.810836 1.311833
v 0.927854 0.810836 1.311833
v -0.313883 0.000000 0.000000
v 0.313883 0.000000 0.000000
v -0.030531 0.537119 2.151056
v 0.030531 0.537119 2.151056
v 0.577151 0.367781 0.302050
v -0.577151 0.367781 0.302050
v 0.000000 0.810836 1.311833
v 0.479192 0.673978 1.731444
v -0.479192 0.673978 1.731444
vt 0.196168 0.832190
vt 0.236398 0.793221
vt 0.277867 0.832190
vt 0.359565 0.832190
vt 0.319336 0.793221
vt 0.244116 0.962243
vt 0.216366 0.924764
vt 0.339368 0.924764
vt 0.313617 0.962243
vt 0.280509 0.751753
vt 0.275225 0.751753
vt 0.196168 0.832190
vt 0.236398 0.793221
vt 0.277867 0.832190
vt 0.359565 0.832190
vt 0.319336 0.793221
vt 0.244116 0.962243
vt 0.216366 0.924764
vt 0.339368 0.924764
vt 0.313617 0.962243
vt 0.280509 0.751753
vt 0.275225 0.751753
vn 0.000000 -0.998795 0.049077
vn 0.000000 -0.998795 0.049077
vn 0.000000 -0.950711 -0.310079
vn 0.000000 -0.998795 0.049077
vn 0.000000 -0.950711 -0.310079
vn 0.000000 -0.634669 0.772784
vn 0.000000 -0.634669 0.772784
vn 0.000000 -0.842576 0.538578
vn 0.000000 -0.842576 0.538578
vn 0.000000 -0.950711 -0.310079
vn 0.000000 -0.950711 -0.310079
vn 0.000000 0.998795 -0.049077
vn 0.000000 0.950711 0.310079
vn 0.000000 0.998795 -0.049077
vn 0.000000 0.998795 -0.049077
vn 0.000000 0.950711 0.310079
vn 0.000000 0.634669 -0.772784
vn 0.000000 0.842576 -0.538578
vn 0.000000 0.842576 -0.538578
vn 0.000000 0.634669 -0.772784
vn 0.000000 0.950711 0.310079
vn 0.000000 0.950711 0.310079
s 1
usemtl falling_rock_1:default1
f 1/1/1 9/3/2 11/2/3
f 2/4/4 10/5/5 9/3/2
f 3/6/6 4/9/7 7/8/8 8/7/9
f 6/10/10 5/11/11 11/2/3 9/3/2 10/5/5
f 7/8/8 2/4/4 9/3/2
f 8/7/9 7/8/8 9/3/2
f 9/3/2 1/1/1 8/7/9
s 3
f 12/12/12 22/13/13 20/14/14
f 13/15/15 20/14/14 21/16/16
f 14/17/17 19/18/18 18/19/19 15/20/20
f 17/21/21 21/16/16 20/14/14 22/13/13 16/22/22
f 18/19/19 20/14/14 13/15/15
f 19/18/18 20/14/14 18/19/19
f 20/14/14 19/18/18 12/12/12
