# This file uses centimeters as units for non-parametric coordinates.

mtllib loglowpoly.mtl
v 0.193030 -0.000000 2.922343
v -0.193030 -0.000000 2.922343
v -0.386059 0.334337 2.922343
v -0.193030 0.668675 2.922343
v 0.193030 0.668675 2.922343
v 0.386060 0.334337 2.922343
v 0.193030 -0.000000 -3.033517
v -0.193030 -0.000000 -3.033517
v -0.386059 0.334337 -3.033517
v -0.193030 0.668675 -3.033517
v 0.193030 0.668675 -3.033517
v 0.386060 0.334337 -3.033517
v 0.000000 0.334337 2.922343
v 0.000000 0.334337 -3.033517
vt 0.731429 0.738167
vt 0.731473 0.982126
vt 0.772786 0.738166
vt 0.772786 0.982125
vt 0.814143 0.738167
vt 0.814099 0.982126
vt 0.855479 0.738168
vt 0.855435 0.982127
vt 0.896792 0.738169
vt 0.896792 0.982128
vt 0.899651 0.624358
vt 0.952803 0.624358
vt 0.938105 0.738168
vt 0.979440 0.738167
vt 0.979484 0.982126
vt 0.938149 0.982127
vt 0.926227 0.669824
vt 0.873075 0.669824
vt 0.899651 0.715289
vt 0.952803 0.715289
vt 0.979379 0.669824
vt 0.952803 0.624358
vt 0.899651 0.624358
vt 0.926227 0.669824
vt 0.873075 0.669824
vt 0.899651 0.715289
vt 0.952803 0.715289
vt 0.979379 0.669824
vn 0.500000 -0.866025 0.000000
vn -0.500000 -0.866025 0.000000
vn -0.500000 -0.866025 0.000000
vn 0.500000 -0.866025 0.000000
vn -1.000000 -0.000000 0.000000
vn -1.000000 -0.000000 0.000000
vn -0.500000 0.866025 0.000000
vn -0.500000 0.866025 0.000000
vn 0.500000 0.866025 0.000000
vn 0.500000 0.866025 0.000000
vn 1.000000 -0.000000 0.000000
vn 1.000000 -0.000000 0.000000
vn -0.000000 0.000000 1.000000
vn 0.000000 0.000000 1.000000
vn -0.000000 0.000000 1.000000
vn -0.000000 0.000000 1.000000
vn 0.000000 0.000000 1.000000
vn 0.000000 0.000000 1.000000
vn 0.000000 0.000000 1.000000
vn 0.000000 0.000000 -1.000000
vn 0.000000 0.000000 -1.000000
vn -0.000000 0.000000 -1.000000
vn -0.000000 0.000000 -1.000000
vn -0.000000 0.000000 -1.000000
vn 0.000000 0.000000 -1.000000
vn 0.000000 0.000000 -1.000000
s 1
usemtl falling_rock_1:default1
f 1/13/1 2/14/2 8/15/3 7/16/4
f 2/1/2 3/3/5 9/4/6 8/2/3
f 3/3/5 4/5/7 10/6/8 9/4/6
f 4/5/7 5/7/9 11/8/10 10/6/8
f 5/7/9 6/9/11 12/10/12 11/8/10
f 6/9/11 1/13/1 7/16/4 12/10/12
s 2
f 2/11/13 1/12/14 13/17/15
f 3/18/16 2/11/13 13/17/15
f 4/19/17 3/18/16 13/17/15
f 5/20/18 4/19/17 13/17/15
f 6/21/19 5/20/18 13/17/15
f 1/12/14 6/21/19 13/17/15
s 3
f 7/22/20 8/23/21 14/24/22
f 8/23/21 9/25/23 14/24/22
f 9/25/23 10/26/24 14/24/22
f 10/26/24 11/27/25 14/24/22
f 11/27/25 12/28/26 14/24/22
f 12/28/26 7/22/20 14/24/22
