# This file uses centimeters as units for non-parametric coordinates.

v 0.246977 1.382520 1.883676
v 0.979290 1.394177 1.632126
v -0.284615 -0.053337 0.269567
v 0.447698 -0.041680 0.018017
v 0.718050 1.193701 2.632912
v 1.073515 1.199360 2.510810
v 0.636835 0.745435 0.605109
v -0.095478 0.733778 0.856659
v 0.246977 1.382520 1.883676
v 0.979290 1.394177 1.632126
v -0.284615 -0.053337 0.269567
v 0.447698 -0.041680 0.018017
v 0.718050 1.193701 2.632912
v 1.073515 1.199360 2.510810
v 0.636835 0.745435 0.605109
v -0.095478 0.733778 0.856659
vt 0.356186 0.840422
vt 0.421621 0.840422
vt 0.404785 0.777182
vt 0.373022 0.777182
vt 0.356186 0.926319
vt 0.421621 0.926319
vt 0.356186 0.978274
vt 0.421621 0.978274
vt 0.356186 0.840422
vt 0.373022 0.777182
vt 0.404785 0.777182
vt 0.421621 0.840422
vt 0.421621 0.926319
vt 0.356186 0.926319
vt 0.356186 0.978274
vt 0.421621 0.978274
vn 0.065948 -0.987047 0.146248
vn 0.065948 -0.987047 0.146248
vn -0.056706 -0.975989 -0.210310
vn -0.056706 -0.975989 -0.210310
vn 0.065948 -0.987047 0.146248
vn 0.065948 -0.987047 0.146248
vn 0.225643 -0.749676 0.622150
vn 0.225643 -0.749676 0.622150
vn 0.264518 -0.616622 0.741490
vn 0.264518 -0.616622 0.741490
vn 0.225643 -0.749676 0.622150
vn 0.225643 -0.749676 0.622150
vn -0.065948 0.987047 -0.146248
vn 0.056706 0.975989 0.210310
vn 0.056706 0.975989 0.210310
vn -0.065948 0.987047 -0.146248
vn -0.065948 0.987047 -0.146248
vn -0.225643 0.749676 -0.622150
vn -0.225643 0.749676 -0.622150
vn -0.065948 0.987047 -0.146248
vn -0.264518 0.616622 -0.741490
vn -0.225643 0.749676 -0.622150
vn -0.225643 0.749676 -0.622150
vn -0.264518 0.616622 -0.741490
s off
f 1/1/1 2/2/2 6/3/3 5/4/4
f 2/2/5 1/1/6 8/5/7 7/6/8
f 3/7/9 4/8/10 7/6/11 8/5/12
f 9/9/13 13/10/14 14/11/15 10/12/16
f 10/12/17 15/13/18 16/14/19 9/9/20
f 11/15/21 16/14/22 15/13/23 12/16/24
v -1.557064 1.403224 0.982971
v -1.047361 1.362133 1.564529
v -0.326828 -0.026963 -0.196313
v 0.182874 -0.068054 0.385246
v -2.080351 1.199152 1.692508
v -1.832941 1.179206 1.974797
v -0.254745 0.716658 0.824239
v -0.764448 0.757749 0.242681
v -1.557064 1.403224 0.982971
v -1.047361 1.362133 1.564529
v -0.326828 -0.026963 -0.196313
v 0.182874 -0.068054 0.385246
v -2.080351 1.199152 1.692508
v -1.832941 1.179206 1.974797
v -0.254745 0.716658 0.824239
v -0.764448 0.757749 0.242681
vt 0.356186 0.840422
vt 0.421621 0.840422
vt 0.404785 0.777182
vt 0.373022 0.777182
vt 0.356186 0.926319
vt 0.421621 0.926319
vt 0.356186 0.978274
vt 0.421621 0.978274
vt 0.356186 0.840422
vt 0.373022 0.777182
vt 0.404785 0.777182
vt 0.421621 0.840422
vt 0.421621 0.926319
vt 0.356186 0.926319
vt 0.356186 0.978274
vt 0.421621 0.978274
vn -0.153002 -0.986124 0.064422
vn -0.153002 -0.986124 0.064422
vn 0.130962 -0.974235 -0.183617
vn 0.130962 -0.974235 -0.183617
vn -0.153002 -0.986124 0.064422
vn -0.153002 -0.986124 0.064422
vn -0.522638 -0.750185 0.405057
vn -0.522638 -0.750185 0.405057
vn -0.612596 -0.617585 0.493269
vn -0.612596 -0.617585 0.493269
vn -0.522638 -0.750185 0.405057
vn -0.522638 -0.750185 0.405057
vn 0.153002 0.986124 -0.064422
vn -0.130962 0.974235 0.183617
vn -0.130962 0.974235 0.183617
vn 0.153002 0.986124 -0.064422
vn 0.153002 0.986124 -0.064422
vn 0.522638 0.750185 -0.405057
vn 0.522638 0.750185 -0.405057
vn 0.153002 0.986124 -0.064422
vn 0.612596 0.617585 -0.493269
vn 0.522638 0.750185 -0.405057
vn 0.522638 0.750185 -0.405057
vn 0.612596 0.617585 -0.493269
s off
f 17/17/25 18/18/26 22/19/27 21/20/28
f 18/18/29 17/17/30 24/21/31 23/22/32
f 19/23/33 20/24/34 23/22/35 24/21/36
f 25/25/37 29/26/38 30/27/39 26/28/40
f 26/28/41 31/29/42 32/30/43 25/25/44
f 27/31/45 32/30/46 31/29/47 28/32/48
v -0.885685 1.826946 -0.988624
v -1.286650 1.826946 -0.326112
v 0.200482 0.000000 -0.331256
v -0.200482 -0.000000 0.331256
v -1.743355 1.864690 -1.274798
v -1.937984 1.864690 -0.953214
v -0.535754 0.920010 0.128344
v -0.134789 0.920010 -0.534169
v -0.885685 1.826946 -0.988624
v -1.286650 1.826946 -0.326112
v 0.200482 0.000000 -0.331256
v -0.200482 -0.000000 0.331256
v -1.743355 1.864690 -1.274798
v -1.937984 1.864690 -0.953214
v -0.535754 0.920010 0.128344
v -0.134789 0.920010 -0.534169
vt 0.356186 0.840422
vt 0.421621 0.840422
vt 0.404785 0.777182
vt 0.373022 0.777182
vt 0.356186 0.926319
vt 0.421621 0.926319
vt 0.356186 0.978274
vt 0.421621 0.978274
vt 0.356186 0.840422
vt 0.373022 0.777182
vt 0.404785 0.777182
vt 0.421621 0.840422
vt 0.421621 0.926319
vt 0.356186 0.926319
vt 0.356186 0.978274
vt 0.421621 0.978274
vn -0.350620 -0.912160 -0.212201
vn -0.350620 -0.912160 -0.212201
vn -0.036581 -0.999086 -0.022139
vn -0.036581 -0.999086 -0.022139
vn -0.350620 -0.912160 -0.212201
vn -0.350620 -0.912160 -0.212201
vn -0.712850 -0.552913 -0.431430
vn -0.712850 -0.552913 -0.431430
vn -0.787085 -0.391894 -0.476358
vn -0.787085 -0.391894 -0.476358
vn -0.712850 -0.552913 -0.431430
vn -0.712850 -0.552913 -0.431430
vn 0.350620 0.912160 0.212201
vn 0.036581 0.999086 0.022139
vn 0.036581 0.999086 0.022139
vn 0.350620 0.912160 0.212201
vn 0.350620 0.912160 0.212201
vn 0.712850 0.552913 0.431430
vn 0.712850 0.552913 0.431430
vn 0.350620 0.912160 0.212201
vn 0.787085 0.391894 0.476358
vn 0.712850 0.552913 0.431430
vn 0.712850 0.552913 0.431430
vn 0.787085 0.391894 0.476358
s off
f 33/33/49 34/34/50 38/35/51 37/36/52
f 34/34/53 33/33/54 40/37/55 39/38/56
f 35/39/57 36/40/58 39/38/59 40/37/60
f 41/41/61 45/42/62 46/43/63 42/44/64
f 42/44/65 47/45/66 48/46/67 41/41/68
f 43/47/69 48/46/70 47/45/71 44/48/72
v 0.949120 2.065537 -0.388036
v 0.346885 2.065537 -0.874870
v 0.403431 0.017083 0.287006
v -0.198804 0.017083 -0.199828
v 1.331950 2.283314 -1.178562
v 1.039625 2.283314 -1.414872
v -0.076264 0.997901 -0.351415
v 0.525971 0.997901 0.135419
v 0.949120 2.065537 -0.388036
v 0.346885 2.065537 -0.874870
v 0.403431 0.017083 0.287006
v -0.198804 0.017083 -0.199828
v 1.331950 2.283314 -1.178562
v 1.039625 2.283314 -1.414872
v -0.076264 0.997901 -0.351415
v 0.525971 0.997901 0.135419
vt 0.356186 0.840422
vt 0.421621 0.840422
vt 0.404785 0.777182
vt 0.373022 0.777182
vt 0.356186 0.926319
vt 0.421621 0.926319
vt 0.356186 0.978274
vt 0.421621 0.978274
vt 0.356186 0.840422
vt 0.373022 0.777182
vt 0.404785 0.777182
vt 0.421621 0.840422
vt 0.421621 0.926319
vt 0.356186 0.926319
vt 0.356186 0.978274
vt 0.421621 0.978274
vn 0.369753 -0.808744 -0.457401
vn 0.369753 -0.808744 -0.457401
vn 0.155096 -0.969090 -0.191860
vn 0.155096 -0.969090 -0.191860
vn 0.369753 -0.808744 -0.457401
vn 0.369753 -0.808744 -0.457401
vn 0.583966 -0.370313 -0.722393
vn 0.583966 -0.370313 -0.722393
vn 0.616601 -0.194923 -0.762764
vn 0.616601 -0.194923 -0.762764
vn 0.583966 -0.370313 -0.722393
vn 0.583966 -0.370313 -0.722393
vn -0.369753 0.808744 0.457401
vn -0.155096 0.969090 0.191860
vn -0.155096 0.969090 0.191860
vn -0.369753 0.808744 0.457401
vn -0.369753 0.808744 0.457401
vn -0.583966 0.370313 0.722393
vn -0.583966 0.370313 0.722393
vn -0.369753 0.808744 0.457401
vn -0.616601 0.194923 0.762764
vn -0.583966 0.370313 0.722393
vn -0.583966 0.370313 0.722393
vn -0.616601 0.194923 0.762764
s off
f 49/49/73 50/50/74 54/51/75 53/52/76
f 50/50/77 49/49/78 56/53/79 55/54/80
f 51/55/81 52/56/82 55/54/83 56/53/84
f 57/57/85 61/58/86 62/59/87 58/60/88
f 58/60/89 63/61/90 64/62/91 57/57/92
f 59/63/93 64/62/94 63/61/95 60/64/96
v 1.673972 1.616522 0.307482
v 1.562125 1.616522 -0.458799
v 0.193355 -0.029895 0.523594
v 0.081507 -0.029895 -0.242686
v 2.515323 1.539309 -0.016687
v 2.461032 1.539309 -0.388640
v 0.584335 0.831370 -0.316079
v 0.696182 0.831370 0.450201
v 1.673972 1.616522 0.307482
v 1.562125 1.616522 -0.458799
v 0.193355 -0.029895 0.523594
v 0.081507 -0.029895 -0.242686
v 2.515323 1.539309 -0.016687
v 2.461032 1.539309 -0.388640
v 0.584335 0.831370 -0.316079
v 0.696182 0.831370 0.450201
vt 0.356186 0.840422
vt 0.421621 0.840422
vt 0.404785 0.777182
vt 0.373022 0.777182
vt 0.356186 0.926319
vt 0.421621 0.926319
vt 0.356186 0.978274
vt 0.421621 0.978274
vt 0.356186 0.840422
vt 0.373022 0.777182
vt 0.404785 0.777182
vt 0.421621 0.840422
vt 0.421621 0.926319
vt 0.356186 0.926319
vt 0.356186 0.978274
vt 0.421621 0.978274
vn 0.284772 -0.957694 -0.041566
vn 0.284772 -0.957694 -0.041566
vn -0.086553 -0.996167 0.012633
vn -0.086553 -0.996167 0.012633
vn 0.284772 -0.957694 -0.041566
vn 0.284772 -0.957694 -0.041566
vn 0.746391 -0.656531 -0.108944
vn 0.746391 -0.656531 -0.108944
vn 0.852235 -0.508156 -0.124393
vn 0.852235 -0.508156 -0.124393
vn 0.746391 -0.656531 -0.108944
vn 0.746391 -0.656531 -0.108944
vn -0.284772 0.957694 0.041566
vn 0.086553 0.996167 -0.012633
vn 0.086553 0.996167 -0.012633
vn -0.284772 0.957694 0.041566
vn -0.284772 0.957694 0.041566
vn -0.746391 0.656531 0.108944
vn -0.746391 0.656531 0.108944
vn -0.284772 0.957694 0.041566
vn -0.852235 0.508156 0.124393
vn -0.746391 0.656531 0.108944
vn -0.746391 0.656531 0.108944
vn -0.852235 0.508156 0.124393
s off
f 65/65/97 66/66/98 70/67/99 69/68/100
f 66/66/101 65/65/102 72/69/103 71/70/104
f 67/71/105 68/72/106 71/70/107 72/69/108
f 73/73/109 77/74/110 78/75/111 74/76/112
f 74/76/113 79/77/114 80/78/115 73/73/116
f 75/79/117 80/78/118 79/77/119 76/80/120
