# This file uses centimeters as units for non-parametric coordinates.

v -0.305659 1.218650 1.973127
v 0.468741 1.218650 1.973127
v -0.305659 -0.047508 0.143792
v 0.468741 -0.047508 0.143792
v -0.106406 0.944933 2.812350
v 0.269488 0.944933 2.812350
v 0.468741 0.676820 0.833247
v -0.305659 0.676820 0.833247
v -0.305659 1.218650 1.973127
v 0.468741 1.218650 1.973127
v -0.305659 -0.047508 0.143792
v 0.468741 -0.047508 0.143792
v -0.106406 0.944933 2.812350
v 0.269488 0.944933 2.812350
v 0.468741 0.676820 0.833247
v -0.305659 0.676820 0.833247
vt 0.356186 0.840422
vt 0.421621 0.840422
vt 0.404785 0.777182
vt 0.373022 0.777182
vt 0.356186 0.926319
vt 0.421621 0.926319
vt 0.356186 0.978274
vt 0.421621 0.978274
vt 0.356186 0.840422
vt 0.373022 0.777182
vt 0.404785 0.777182
vt 0.421621 0.840422
vt 0.421621 0.926319
vt 0.356186 0.926319
vt 0.356186 0.978274
vt 0.421621 0.978274
vn 0.000000 -0.997938 0.064180
vn 0.000000 -0.997938 0.064180
vn 0.000000 -0.950711 -0.310079
vn 0.000000 -0.950711 -0.310079
vn 0.000000 -0.997938 0.064180
vn 0.000000 -0.997938 0.064180
vn 0.000000 -0.809855 0.586631
vn 0.000000 -0.809855 0.586631
vn 0.000000 -0.689455 0.724328
vn 0.000000 -0.689455 0.724328
vn 0.000000 -0.809855 0.586631
vn 0.000000 -0.809855 0.586631
vn 0.000000 0.997938 -0.064180
vn 0.000000 0.950711 0.310079
vn 0.000000 0.950711 0.310079
vn 0.000000 0.997938 -0.064180
vn 0.000000 0.997938 -0.064180
vn 0.000000 0.809855 -0.586631
vn 0.000000 0.809855 -0.586631
vn 0.000000 0.997938 -0.064180
vn 0.000000 0.689455 -0.724328
vn 0.000000 0.809855 -0.586631
vn 0.000000 0.809855 -0.586631
vn 0.000000 0.689455 -0.724328
s off
f 1/1/1 2/2/2 6/3/3 5/4/4
f 2/2/5 1/1/6 8/5/7 7/6/8
f 3/7/9 4/8/10 7/6/11 8/5/12
f 9/9/13 13/10/14 14/11/15 10/12/16
f 10/12/17 15/13/18 16/14/19 9/9/20
f 11/15/21 16/14/22 15/13/23 12/16/24
v -1.521969 1.218650 1.275108
v -0.919256 1.218650 1.761352
v -0.373333 -0.047508 -0.148656
v 0.229379 -0.047508 0.337589
v -1.893837 0.944933 2.053382
v -1.601280 0.944933 2.289405
v -0.203528 0.676820 0.874188
v -0.806240 0.676820 0.387944
v -1.521969 1.218650 1.275108
v -0.919256 1.218650 1.761352
v -0.373333 -0.047508 -0.148656
v 0.229379 -0.047508 0.337589
v -1.893837 0.944933 2.053382
v -1.601280 0.944933 2.289405
v -0.203528 0.676820 0.874188
v -0.806240 0.676820 0.387944
vt 0.356186 0.840422
vt 0.421621 0.840422
vt 0.404785 0.777182
vt 0.373022 0.777182
vt 0.356186 0.926319
vt 0.421621 0.926319
vt 0.356186 0.978274
vt 0.421621 0.978274
vt 0.356186 0.840422
vt 0.373022 0.777182
vt 0.404785 0.777182
vt 0.421621 0.840422
vt 0.421621 0.926319
vt 0.356186 0.926319
vt 0.356186 0.978274
vt 0.421621 0.978274
vn -0.040298 -0.997938 0.049951
vn -0.040298 -0.997938 0.049951
vn 0.194698 -0.950711 -0.241333
vn 0.194698 -0.950711 -0.241333
vn -0.040298 -0.997938 0.049951
vn -0.040298 -0.997938 0.049951
vn -0.368344 -0.809855 0.456572
vn -0.368344 -0.809855 0.456572
vn -0.454804 -0.689455 0.563742
vn -0.454804 -0.689455 0.563742
vn -0.368344 -0.809855 0.456572
vn -0.368344 -0.809855 0.456572
vn 0.040298 0.997938 -0.049951
vn -0.194698 0.950711 0.241333
vn -0.194698 0.950711 0.241333
vn 0.040298 0.997938 -0.049951
vn 0.040298 0.997938 -0.049951
vn 0.368344 0.809855 -0.456572
vn 0.368344 0.809855 -0.456572
vn 0.040298 0.997938 -0.049951
vn 0.454804 0.689455 -0.563742
vn 0.368344 0.809855 -0.456572
vn 0.368344 0.809855 -0.456572
vn 0.454804 0.689455 -0.563742
s off
f 17/17/25 18/18/26 22/19/27 21/20/28
f 18/18/29 17/17/30 24/21/31 23/22/32
f 19/23/33 20/24/34 23/22/35 24/21/36
f 25/25/37 29/26/38 30/27/39 26/28/40
f 26/28/41 31/29/42 32/30/43 25/25/44
f 27/31/45 32/30/46 31/29/47 28/32/48
v -1.364545 1.266158 -1.278439
v -1.765510 1.266158 -0.615926
v 0.200482 0.000000 -0.331256
v -0.200482 0.000000 0.331256
v -2.185683 0.992441 -1.542503
v -2.380311 0.992441 -1.220919
v -0.790323 0.724328 -0.025726
v -0.389358 0.724328 -0.688238
v -1.364545 1.266158 -1.278439
v -1.765510 1.266158 -0.615926
v 0.200482 0.000000 -0.331256
v -0.200482 0.000000 0.331256
v -2.185683 0.992441 -1.542503
v -2.380311 0.992441 -1.220919
v -0.790323 0.724328 -0.025726
v -0.389358 0.724328 -0.688238
vt 0.356186 0.840422
vt 0.421621 0.840422
vt 0.404785 0.777182
vt 0.373022 0.777182
vt 0.356186 0.926319
vt 0.421621 0.926319
vt 0.356186 0.978274
vt 0.421621 0.978274
vt 0.356186 0.840422
vt 0.373022 0.777182
vt 0.404785 0.777182
vt 0.421621 0.840422
vt 0.421621 0.926319
vt 0.356186 0.926319
vt 0.356186 0.978274
vt 0.421621 0.978274
vn -0.054907 -0.997938 -0.033231
vn -0.054907 -0.997938 -0.033231
vn 0.265278 -0.950711 0.160551
vn 0.265278 -0.950711 0.160551
vn -0.054907 -0.997938 -0.033231
vn -0.054907 -0.997938 -0.033231
vn -0.501873 -0.809855 -0.303742
vn -0.501873 -0.809855 -0.303742
vn -0.619675 -0.689455 -0.375039
vn -0.619675 -0.689455 -0.375039
vn -0.501873 -0.809855 -0.303742
vn -0.501873 -0.809855 -0.303742
vn 0.054907 0.997938 0.033231
vn -0.265278 0.950711 -0.160551
vn -0.265278 0.950711 -0.160551
vn 0.054907 0.997938 0.033231
vn 0.054907 0.997938 0.033231
vn 0.501873 0.809855 0.303742
vn 0.501873 0.809855 0.303742
vn 0.054907 0.997938 0.033231
vn 0.619675 0.689455 0.375039
vn 0.501873 0.809855 0.303742
vn 0.501873 0.809855 0.303742
vn 0.619675 0.689455 0.375039
s off
f 33/33/49 34/34/50 38/35/51 37/36/52
f 34/34/53 33/33/54 40/37/55 39/38/56
f 35/39/57 36/40/58 39/38/59 40/37/60
f 41/41/61 45/42/62 46/43/63 42/44/64
f 42/44/65 47/45/66 48/46/67 41/41/68
f 43/47/69 48/46/70 47/45/71 44/48/72
v 2.003509 1.236263 0.259382
v 1.891662 1.236263 -0.506898
v 0.193355 -0.029895 0.523594
v 0.081507 -0.029895 -0.242686
v 2.805154 0.962546 -0.058991
v 2.750863 0.962546 -0.430944
v 0.763733 0.694433 -0.342264
v 0.875581 0.694433 0.424016
v 2.003509 1.236263 0.259382
v 1.891662 1.236263 -0.506898
v 0.193355 -0.029895 0.523594
v 0.081507 -0.029895 -0.242686
v 2.805154 0.962546 -0.058991
v 2.750863 0.962546 -0.430944
v 0.763733 0.694433 -0.342264
v 0.875581 0.694433 0.424016
vt 0.356186 0.840422
vt 0.421621 0.840422
vt 0.404785 0.777182
vt 0.373022 0.777182
vt 0.356186 0.926319
vt 0.421621 0.926319
vt 0.356186 0.978274
vt 0.421621 0.978274
vt 0.356186 0.840422
vt 0.373022 0.777182
vt 0.404785 0.777182
vt 0.421621 0.840422
vt 0.421621 0.926319
vt 0.356186 0.926319
vt 0.356186 0.978274
vt 0.421621 0.978274
vn 0.063507 -0.997938 -0.009270
vn 0.063507 -0.997938 -0.009270
vn -0.306828 -0.950711 0.044785
vn -0.306828 -0.950711 0.044785
vn 0.063507 -0.997938 -0.009270
vn 0.063507 -0.997938 -0.009270
vn 0.580480 -0.809855 -0.084728
vn 0.580480 -0.809855 -0.084728
vn 0.716734 -0.689455 -0.104615
vn 0.716734 -0.689455 -0.104615
vn 0.580480 -0.809855 -0.084728
vn 0.580480 -0.809855 -0.084728
vn -0.063507 0.997938 0.009270
vn 0.306828 0.950711 -0.044785
vn 0.306828 0.950711 -0.044785
vn -0.063507 0.997938 0.009270
vn -0.063507 0.997938 0.009270
vn -0.580480 0.809855 0.084728
vn -0.580480 0.809855 0.084728
vn -0.063507 0.997938 0.009270
vn -0.716734 0.689455 0.104615
vn -0.580480 0.809855 0.084728
vn -0.580480 0.809855 0.084728
vn -0.716734 0.689455 0.104615
s off
f 49/49/73 50/50/74 54/51/75 53/52/76
f 50/50/77 49/49/78 56/53/79 55/54/80
f 51/55/81 52/56/82 55/54/83 56/53/84
f 57/57/85 61/58/86 62/59/87 58/60/88
f 58/60/89 63/61/90 64/62/91 57/57/92
f 59/63/93 64/62/94 63/61/95 60/64/96
v -0.039653 1.601123 -1.591974
v -0.787415 1.595463 -1.390691
v 0.373881 0.002830 -0.100641
v -0.373881 -0.002830 0.100641
v -0.459130 1.494721 -2.386728
v -0.822095 1.491974 -2.289026
v -0.518932 0.841933 -0.414466
v 0.228831 0.847592 -0.615749
v -0.039653 1.601123 -1.591974
v -0.787415 1.595463 -1.390691
v 0.373881 0.002830 -0.100641
v -0.373881 -0.002830 0.100641
v -0.459130 1.494721 -2.386728
v -0.822095 1.491974 -2.289026
v -0.518932 0.841933 -0.414466
v 0.228831 0.847592 -0.615749
vt 0.356186 0.840422
vt 0.421621 0.840422
vt 0.404785 0.777182
vt 0.373022 0.777182
vt 0.356186 0.926319
vt 0.421621 0.926319
vt 0.356186 0.978274
vt 0.421621 0.978274
vt 0.356186 0.840422
vt 0.373022 0.777182
vt 0.404785 0.777182
vt 0.421621 0.840422
vt 0.421621 0.926319
vt 0.356186 0.926319
vt 0.356186 0.978274
vt 0.421621 0.978274
vn -0.060085 -0.966280 -0.250387
vn -0.060085 -0.966280 -0.250387
vn 0.037910 -0.992881 0.112917
vn 0.037910 -0.992881 0.112917
vn -0.060085 -0.966280 -0.250387
vn -0.060085 -0.966280 -0.250387
vn -0.185776 -0.680009 -0.709278
vn -0.185776 -0.680009 -0.709278
vn -0.215807 -0.535091 -0.816765
vn -0.215807 -0.535091 -0.816765
vn -0.185776 -0.680009 -0.709278
vn -0.185776 -0.680009 -0.709278
vn 0.060085 0.966280 0.250387
vn -0.037910 0.992881 -0.112917
vn -0.037910 0.992881 -0.112917
vn 0.060085 0.966280 0.250387
vn 0.060085 0.966280 0.250387
vn 0.185776 0.680009 0.709278
vn 0.185776 0.680009 0.709278
vn 0.060085 0.966280 0.250387
vn 0.215807 0.535091 0.816765
vn 0.185776 0.680009 0.709278
vn 0.185776 0.680009 0.709278
vn 0.215807 0.535091 0.816765
s off
f 65/65/97 66/66/98 70/67/99 69/68/100
f 66/66/101 65/65/102 72/69/103 71/70/104
f 67/71/105 68/72/106 71/70/107 72/69/108
f 73/73/109 77/74/110 78/75/111 74/76/112
f 74/76/113 79/77/114 80/78/115 73/73/116
f 75/79/117 80/78/118 79/77/119 76/80/120
v -1.540296 1.567158 -0.520622
v -1.642455 1.530136 0.246116
v 0.051079 0.018511 -0.383369
v -0.051079 -0.018511 0.383369
v -2.430970 1.426167 -0.444857
v -2.480557 1.408196 -0.072682
v -0.612004 0.808623 0.348572
v -0.509846 0.845646 -0.418167
v -1.540296 1.567158 -0.520622
v -1.642455 1.530136 0.246116
v 0.051079 0.018511 -0.383369
v -0.051079 -0.018511 0.383369
v -2.430970 1.426167 -0.444857
v -2.480557 1.408196 -0.072682
v -0.612004 0.808623 0.348572
v -0.509846 0.845646 -0.418167
vt 0.356186 0.840422
vt 0.421621 0.840422
vt 0.404785 0.777182
vt 0.373022 0.777182
vt 0.356186 0.926319
vt 0.421621 0.926319
vt 0.356186 0.978274
vt 0.421621 0.978274
vt 0.356186 0.840422
vt 0.373022 0.777182
vt 0.404785 0.777182
vt 0.421621 0.840422
vt 0.421621 0.926319
vt 0.356186 0.926319
vt 0.356186 0.978274
vt 0.421621 0.978274
vn -0.219680 -0.972589 -0.076232
vn -0.219680 -0.972589 -0.076232
vn 0.154038 -0.987691 -0.027168
vn 0.154038 -0.987691 -0.027168
vn -0.219680 -0.972589 -0.076232
vn -0.219680 -0.972589 -0.076232
vn -0.701447 -0.701257 -0.127320
vn -0.701447 -0.701257 -0.127320
vn -0.817289 -0.559966 -0.135932
vn -0.817289 -0.559966 -0.135932
vn -0.701447 -0.701257 -0.127320
vn -0.701447 -0.701257 -0.127320
vn 0.219680 0.972589 0.076232
vn -0.154038 0.987691 0.027168
vn -0.154038 0.987691 0.027168
vn 0.219680 0.972589 0.076232
vn 0.219680 0.972589 0.076232
vn 0.701447 0.701257 0.127320
vn 0.701447 0.701257 0.127320
vn 0.219680 0.972589 0.076232
vn 0.817289 0.559966 0.135932
vn 0.701447 0.701257 0.127320
vn 0.701447 0.701257 0.127320
vn 0.817289 0.559966 0.135932
s off
f 81/81/121 82/82/122 86/83/123 85/84/124
f 82/82/125 81/81/126 88/85/127 87/86/128
f 83/87/129 84/88/130 87/86/131 88/85/132
f 89/89/133 93/90/134 94/91/135 90/92/136
f 90/92/137 95/93/138 96/94/139 89/89/140
f 91/95/141 96/94/142 95/93/143 92/96/144
v -1.067536 1.484307 1.325423
v -0.375090 1.470937 1.671885
v -0.346223 0.006685 -0.173231
v 0.346223 -0.006685 0.173231
v -1.279563 1.310544 2.187843
v -0.943450 1.304054 2.356016
v 0.091512 0.795495 0.713257
v -0.600933 0.808866 0.366795
v -1.067536 1.484307 1.325423
v -0.375090 1.470937 1.671885
v -0.346223 0.006685 -0.173231
v 0.346223 -0.006685 0.173231
v -1.279563 1.310544 2.187843
v -0.943450 1.304054 2.356016
v 0.091512 0.795495 0.713257
v -0.600933 0.808866 0.366795
vt 0.356186 0.840422
vt 0.421621 0.840422
vt 0.404785 0.777182
vt 0.373022 0.777182
vt 0.356186 0.926319
vt 0.421621 0.926319
vt 0.356186 0.978274
vt 0.421621 0.978274
vt 0.356186 0.840422
vt 0.373022 0.777182
vt 0.404785 0.777182
vt 0.421621 0.840422
vt 0.421621 0.926319
vt 0.356186 0.926319
vt 0.356186 0.978274
vt 0.421621 0.978274
vn -0.097618 -0.982734 0.157178
vn -0.097618 -0.982734 0.157178
vn 0.071200 -0.981057 -0.180162
vn 0.071200 -0.981057 -0.180162
vn -0.097618 -0.982734 0.157178
vn -0.097618 -0.982734 0.157178
vn -0.315661 -0.732961 0.602600
vn -0.315661 -0.732961 0.602600
vn -0.368214 -0.596832 0.712889
vn -0.368214 -0.596832 0.712889
vn -0.315661 -0.732961 0.602600
vn -0.315661 -0.732961 0.602600
vn 0.097618 0.982734 -0.157178
vn -0.071200 0.981057 0.180162
vn -0.071200 0.981057 0.180162
vn 0.097618 0.982734 -0.157178
vn 0.097618 0.982734 -0.157178
vn 0.315661 0.732961 -0.602600
vn 0.315661 0.732961 -0.602600
vn 0.097618 0.982734 -0.157178
vn 0.368214 0.596832 -0.712889
vn 0.315661 0.732961 -0.602600
vn 0.315661 0.732961 -0.602600
vn 0.368214 0.596832 -0.712889
s off
f 97/97/145 98/98/146 102/99/147 101/100/148
f 98/98/149 97/97/150 104/101/151 103/102/152
f 99/103/153 100/104/154 103/102/155 104/101/156
f 105/105/157 109/106/158 110/107/159 106/108/160
f 106/108/161 111/109/162 112/110/163 105/105/164
f 107/111/165 112/110/166 111/109/167 108/112/168
v 0.949778 1.363871 1.528831
v 1.546123 1.273092 1.043211
v -0.298173 0.045390 0.242810
v 0.298173 -0.045390 -0.242810
v 1.616440 1.097183 2.079609
v 1.905906 1.053119 1.843889
v 0.785654 0.696812 0.217077
v 0.189309 0.787592 0.702697
v 0.949778 1.363871 1.528831
v 1.546123 1.273092 1.043211
v -0.298173 0.045390 0.242810
v 0.298173 -0.045390 -0.242810
v 1.616440 1.097183 2.079609
v 1.905906 1.053119 1.843889
v 0.785654 0.696812 0.217077
v 0.189309 0.787592 0.702697
vt 0.356186 0.840422
vt 0.421621 0.840422
vt 0.404785 0.777182
vt 0.373022 0.777182
vt 0.356186 0.926319
vt 0.421621 0.926319
vt 0.356186 0.978274
vt 0.421621 0.978274
vt 0.356186 0.840422
vt 0.373022 0.777182
vt 0.404785 0.777182
vt 0.421621 0.840422
vt 0.421621 0.926319
vt 0.356186 0.926319
vt 0.356186 0.978274
vt 0.421621 0.978274
vn -0.028529 -0.988317 0.149718
vn -0.028529 -0.988317 0.149718
vn -0.262597 -0.954082 -0.144120
vn -0.262597 -0.954082 -0.144120
vn -0.028529 -0.988317 0.149718
vn -0.028529 -0.988317 0.149718
vn 0.315842 -0.783994 0.534413
vn 0.315842 -0.783994 0.534413
vn 0.411519 -0.659844 0.628696
vn 0.411519 -0.659844 0.628696
vn 0.315842 -0.783994 0.534413
vn 0.315842 -0.783994 0.534413
vn 0.028529 0.988317 -0.149718
vn 0.262597 0.954082 0.144120
vn 0.262597 0.954082 0.144120
vn 0.028529 0.988317 -0.149718
vn 0.028529 0.988317 -0.149718
vn -0.315842 0.783994 -0.534413
vn -0.315842 0.783994 -0.534413
vn 0.028529 0.988317 -0.149718
vn -0.411519 0.659844 -0.628696
vn -0.315842 0.783994 -0.534413
vn -0.315842 0.783994 -0.534413
vn -0.411519 0.659844 -0.628696
s off
f 113/113/169 114/114/170 118/115/171 117/116/172
f 114/114/173 113/113/174 120/117/175 119/118/176
f 115/119/177 116/120/178 119/118/179 120/117/180
f 121/121/181 125/122/182 126/123/183 122/124/184
f 122/124/185 127/125/186 128/126/187 121/121/188
f 123/127/189 128/126/190 127/125/191 124/128/192
v 2.078132 0.730683 -0.497008
v 1.781292 0.679303 -1.210409
v 0.148420 0.025690 0.356701
v -0.148420 -0.025690 -0.356701
v 2.688194 0.221931 -0.930498
v 2.544108 0.196991 -1.276783
v 0.636365 0.476840 -0.719435
v 0.933205 0.528220 -0.006033
v 2.078132 0.730683 -0.497008
v 1.781292 0.679303 -1.210409
v 0.148420 0.025690 0.356701
v -0.148420 -0.025690 -0.356701
v 2.688194 0.221931 -0.930498
v 2.544108 0.196991 -1.276783
v 0.636365 0.476840 -0.719435
v 0.933205 0.528220 -0.006033
vt 0.356186 0.840422
vt 0.421621 0.840422
vt 0.404785 0.777182
vt 0.373022 0.777182
vt 0.356186 0.926319
vt 0.421621 0.926319
vt 0.356186 0.978274
vt 0.421621 0.978274
vt 0.356186 0.840422
vt 0.373022 0.777182
vt 0.404785 0.777182
vt 0.421621 0.840422
vt 0.421621 0.926319
vt 0.356186 0.926319
vt 0.356186 0.978274
vt 0.421621 0.978274
vn -0.174823 -0.974174 0.142903
vn -0.174823 -0.974174 0.142903
vn -0.498359 -0.824907 0.266773
vn -0.498359 -0.824907 0.266773
vn -0.174823 -0.974174 0.142903
vn -0.174823 -0.974174 0.142903
vn 0.335921 -0.939124 -0.072137
vn 0.335921 -0.939124 -0.072137
vn 0.487013 -0.862010 -0.140559
vn 0.487013 -0.862010 -0.140559
vn 0.335921 -0.939124 -0.072137
vn 0.335921 -0.939124 -0.072137
vn 0.174823 0.974174 -0.142903
vn 0.498359 0.824907 -0.266773
vn 0.498359 0.824907 -0.266773
vn 0.174823 0.974174 -0.142903
vn 0.174823 0.974174 -0.142903
vn -0.335921 0.939124 0.072137
vn -0.335921 0.939124 0.072137
vn 0.174823 0.974174 -0.142903
vn -0.487013 0.862010 0.140559
vn -0.335921 0.939124 0.072137
vn -0.335921 0.939124 0.072137
vn -0.487013 0.862010 0.140559
s off
f 129/129/193 130/130/194 134/131/195 133/132/196
f 130/130/197 129/129/198 136/133/199 135/134/200
f 131/135/201 132/136/202 135/134/203 136/133/204
f 137/137/205 141/138/206 142/139/207 138/140/208
f 138/140/209 143/141/210 144/142/211 137/137/212
f 139/143/213 144/142/214 143/141/215 140/144/216
v 0.947918 1.030290 -1.771864
v 0.203502 1.060969 -1.983048
v 0.372208 -0.015340 0.105592
v -0.372208 0.015340 -0.105592
v 0.961206 0.669680 -2.601745
v 0.599867 0.684572 -2.704253
v -0.138086 0.654707 -0.837982
v 0.606330 0.624028 -0.626798
v 0.947918 1.030290 -1.771864
v 0.203502 1.060969 -1.983048
v 0.372208 -0.015340 0.105592
v -0.372208 0.015340 -0.105592
v 0.961206 0.669680 -2.601745
v 0.599867 0.684572 -2.704253
v -0.138086 0.654707 -0.837982
v 0.606330 0.624028 -0.626798
vt 0.356186 0.840422
vt 0.421621 0.840422
vt 0.404785 0.777182
vt 0.373022 0.777182
vt 0.356186 0.926319
vt 0.421621 0.926319
vt 0.356186 0.978274
vt 0.421621 0.978274
vt 0.356186 0.840422
vt 0.373022 0.777182
vt 0.404785 0.777182
vt 0.421621 0.840422
vt 0.421621 0.926319
vt 0.356186 0.926319
vt 0.356186 0.978274
vt 0.421621 0.978274
vn -0.052114 -0.997890 0.038731
vn -0.052114 -0.997890 0.038731
vn -0.148650 -0.907833 0.392101
vn -0.148650 -0.907833 0.392101
vn -0.052114 -0.997890 0.038731
vn -0.052114 -0.997890 0.038731
vn 0.100268 -0.871492 -0.480050
vn 0.100268 -0.871492 -0.480050
vn 0.145344 -0.767880 -0.623888
vn 0.145344 -0.767880 -0.623888
vn 0.100268 -0.871492 -0.480050
vn 0.100268 -0.871492 -0.480050
vn 0.052114 0.997890 -0.038731
vn 0.148650 0.907833 -0.392101
vn 0.148650 0.907833 -0.392101
vn 0.052114 0.997890 -0.038731
vn 0.052114 0.997890 -0.038731
vn -0.100268 0.871492 0.480050
vn -0.100268 0.871492 0.480050
vn 0.052114 0.997890 -0.038731
vn -0.145344 0.767880 0.623888
vn -0.100268 0.871492 0.480050
vn -0.100268 0.871492 0.480050
vn -0.145344 0.767880 0.623888
s off
f 145/145/217 146/146/218 150/147/219 149/148/220
f 146/146/221 145/145/222 152/149/223 151/150/224
f 147/151/225 148/152/226 151/150/227 152/149/228
f 153/153/229 157/154/230 158/155/231 154/156/232
f 154/156/233 159/157/234 160/158/235 153/153/236
f 155/159/237 160/158/238 159/157/239 156/160/240
