# This file uses centimeters as units for non-parametric coordinates.

mtllib trunk.mtl
v 0.236296 1.578287 0.043571
v 0.235864 1.574603 -0.060647
v 0.189042 1.575772 -0.138990
v 0.103416 1.578191 -0.179441
v 0.021033 1.580186 -0.197619
v -0.061272 1.580194 -0.179260
v -0.131046 1.580217 -0.126978
v -0.177669 1.580250 -0.048733
v -0.194214 1.578287 0.043571
v -0.177669 1.580330 0.135860
v -0.130952 1.581939 0.213986
v -0.061223 1.581962 0.266234
v 0.021027 1.581970 0.284580
v 0.103338 1.580386 0.266387
v 0.173113 1.580364 0.214105
v 0.219735 1.580330 0.135860
v 0.190464 3.144102 0.038836
v 0.177894 3.140896 -0.035403
v 0.140381 3.140869 -0.098360
v 0.083933 3.144812 -0.139708
v 0.017964 3.147573 -0.153873
v -0.047727 3.148596 -0.139021
v -0.103410 3.148614 -0.097298
v -0.155345 3.147213 -0.038189
v -0.169068 3.143886 0.035593
v -0.141033 3.146118 0.112681
v -0.103358 3.149161 0.174838
v -0.048966 3.147921 0.217983
v 0.019109 3.147913 0.214798
v 0.080764 3.148007 0.200395
v 0.139324 3.148731 0.174904
v 0.176782 3.147277 0.112582
v 0.259708 0.000067 -0.068133
v 0.279328 0.000115 0.042474
v 0.240219 0.033757 0.141060
v 0.191398 0.007400 0.194899
v 0.115000 0.007425 0.253994
v 0.025103 0.007435 0.275614
v -0.065330 0.007427 0.257011
v -0.148223 0.007400 0.194899
v -0.198233 0.031626 0.141856
v -0.236152 0.000115 0.042474
v -0.216533 0.000067 -0.068133
v -0.160662 0.000027 -0.161901
v -0.077045 0.000000 -0.224554
v 0.021588 -0.000010 -0.246555
v 0.120220 0.000000 -0.224554
v 0.203837 0.000027 -0.161901
v 0.144402 4.279202 0.037056
v 0.134637 4.279178 -0.017992
v 0.106831 4.279158 -0.064658
v 0.065216 4.279144 -0.095840
v 0.016128 4.279140 -0.106790
v -0.029413 4.266051 -0.086241
v -0.068641 4.266210 -0.056640
v -0.113201 4.279178 -0.020405
v -0.122965 4.279202 0.034642
v -0.102382 4.279225 0.092103
v -0.074575 4.279245 0.138770
v -0.031371 4.263913 0.157403
v 0.015690 4.265964 0.170566
v 0.061671 4.266168 0.160352
v 0.100280 4.266153 0.131421
v 0.134637 4.279225 0.092103
v 0.169290 2.523815 0.184140
v 0.100632 2.523837 0.235586
v 0.019639 2.524723 0.253528
v 0.113907 1.680252 0.295194
v 0.114528 2.414750 0.272874
v 0.169872 1.680234 0.253260
v 0.171518 2.414731 0.230172
v 0.047304 2.414756 0.287869
v 0.047891 1.680258 0.309920
vt 0.908451 0.825435
vt 0.908467 0.907576
vt 0.891617 0.907578
vt 0.891611 0.825437
vt 0.925309 0.825432
vt 0.924814 0.907573
vt 0.939303 0.825429
vt 0.939940 0.907570
vt 0.953827 0.825427
vt 0.953849 0.907568
vt 0.967084 0.907567
vt 0.730093 0.743298
vt 0.730107 0.825426
vt 0.730122 0.907567
vt 0.744400 0.743299
vt 0.744407 0.825427
vt 0.744414 0.907568
vt 0.760355 0.743302
vt 0.760352 0.825429
vt 0.761257 0.907570
vt 0.778011 0.743304
vt 0.777996 0.825432
vt 0.777490 0.907573
vt 0.795726 0.745116
vt 0.796307 0.825435
vt 0.796283 0.907576
vt 0.808891 0.743724
vt 0.813815 0.825437
vt 0.813788 0.907578
vt 0.828730 0.743726
vt 0.829890 0.825439
vt 0.829705 0.907472
vt 0.846022 0.743726
vt 0.844938 0.825441
vt 0.862978 0.743726
vt 0.859798 0.825441
vt 0.844928 0.866511
vt 0.848978 0.830312
vt 0.848971 0.861641
vt 0.880318 0.743725
vt 0.875248 0.825439
vt 0.859488 0.830313
vt 0.892323 0.745241
vt 0.870391 0.830312
vt 0.875246 0.866510
vt 0.875244 0.907580
vt 0.908468 0.989767
vt 0.891610 0.989769
vt 0.924824 0.989764
vt 0.729980 0.988245
vt 0.744497 0.988263
vt 0.761267 0.989761
vt 0.777492 0.989763
vt 0.796274 0.989766
vt 0.813771 0.989769
vt 0.828955 0.987998
vt 0.845354 0.907509
vt 0.844887 0.988236
vt 0.859792 0.866511
vt 0.860718 0.907517
vt 0.859957 0.988260
vt 0.875459 0.988259
vt 0.870388 0.861640
vt 0.859483 0.861641
vt 0.980397 0.743298
vt 0.967065 0.825426
vt 0.980411 0.825426
vt 0.980426 0.907567
vt 0.911602 0.718541
vt 0.908434 0.743307
vt 0.924770 0.743304
vt 0.963160 0.706516
vt 0.939893 0.743302
vt 0.947817 0.717957
vt 0.953805 0.743300
vt 0.929763 0.722142
vt 0.967046 0.743298
vt 0.939955 0.989761
vt 0.976879 0.698381
vt 0.928880 0.728902
vt 0.947435 0.724929
vt 0.953866 0.989759
vt 0.963015 0.713675
vt 0.967102 0.989758
vt 0.980284 0.988245
vt 0.980819 0.677007
vt 0.972965 0.696093
vt 0.894954 0.706516
vt 0.884911 0.696247
vt 0.976879 0.655594
vt 0.877295 0.677007
vt 0.965658 0.637441
vt 0.881235 0.655594
vt 0.948865 0.625312
vt 0.892456 0.637441
vt 0.929057 0.621052
vt 0.909249 0.625312
vt 0.980819 0.676968
vt 0.909890 0.723782
vt 0.976879 0.655555
vt 0.892456 0.716534
vt 0.965658 0.637402
vt 0.881235 0.698381
vt 0.948865 0.625273
vt 0.872930 0.676029
vt 0.929057 0.621013
vt 0.910680 0.629007
vt 0.894851 0.640521
vt 0.876870 0.654616
vn 0.997622 -0.001970 0.068896
vn 0.999752 0.001759 0.022180
vn 0.929140 0.001754 0.369724
vn 0.920878 -0.007633 0.389777
vn 0.997622 -0.001970 0.068896
vn 0.995423 0.020996 0.093233
vn 0.950419 0.018886 -0.310399
vn 0.951650 -0.000023 -0.307183
vn 0.951650 -0.000023 -0.307183
vn 0.944575 0.005913 -0.328242
vn 0.999752 0.001759 0.022180
vn 0.997622 -0.001970 0.068896
vn 0.710351 0.020140 -0.703560
vn 0.707824 -0.000051 -0.706389
vn 0.707824 -0.000051 -0.706389
vn 0.725980 0.006083 -0.687689
vn 0.944575 0.005913 -0.328242
vn 0.951650 -0.000023 -0.307183
vn 0.373670 0.027304 -0.927160
vn 0.370398 -0.000066 -0.928873
vn 0.370398 -0.000066 -0.928873
vn 0.394221 0.001893 -0.919014
vn 0.725980 0.006083 -0.687689
vn 0.707824 -0.000051 -0.706389
vn -0.000358 0.030930 -0.999521
vn -0.000000 -0.000071 -1.000000
vn -0.000000 -0.000071 -1.000000
vn -0.025532 0.001835 -0.999672
vn 0.394221 0.001893 -0.919014
vn 0.370398 -0.000066 -0.928873
vn -0.417822 0.030198 -0.908027
vn -0.418014 -0.000064 -0.908441
vn -0.418014 -0.000064 -0.908441
vn -0.441688 0.005419 -0.897152
vn -0.025532 0.001835 -0.999672
vn -0.000000 -0.000071 -1.000000
vn -0.743160 0.028702 -0.668498
vn -0.727544 -0.001862 -0.686059
vn -0.727544 -0.001862 -0.686059
vn -0.680699 0.003508 -0.732555
vn -0.441688 0.005419 -0.897152
vn -0.418014 -0.000064 -0.908441
vn -0.936688 0.027303 -0.349099
vn -0.928739 -0.005829 -0.370687
vn -0.928739 -0.005829 -0.370687
vn -0.902309 -0.004095 -0.431070
vn -0.680699 0.003508 -0.732555
vn -0.727544 -0.001862 -0.686059
vn -0.998535 0.023584 0.048691
vn -0.998949 -0.007625 0.045204
vn -0.998949 -0.007625 0.045204
vn -0.997937 -0.005785 0.063948
vn -0.902309 -0.004095 -0.431070
vn -0.928739 -0.005829 -0.370687
vn -0.898180 0.013683 0.439415
vn -0.911937 -0.009117 0.410229
vn -0.911937 -0.009117 0.410229
vn -0.912848 -0.001725 0.408297
vn -0.997937 -0.005785 0.063948
vn -0.998949 -0.007625 0.045204
vn -0.709448 0.002086 0.704755
vn -0.731404 -0.014522 0.681789
vn -0.731404 -0.014522 0.681789
vn -0.729137 0.002125 0.684364
vn -0.912848 -0.001725 0.408297
vn -0.911937 -0.009117 0.410229
vn -0.414070 -0.004489 0.910234
vn -0.402677 -0.016912 0.915186
vn -0.402677 -0.016912 0.915186
vn -0.355897 0.006325 0.934504
vn -0.729137 0.002125 0.684364
vn -0.731404 -0.014522 0.681789
vn 0.008177 -0.005702 0.999950
vn -0.143660 -0.109392 0.983563
vn 0.425148 -0.003941 0.905115
vn 0.409417 -0.241487 0.879808
vn -0.143660 -0.109392 0.983563
vn -0.125707 0.132254 0.983212
vn -0.355897 0.006325 0.934504
vn -0.402677 -0.016912 0.915186
vn -0.143660 -0.109392 0.983563
vn -0.119407 -0.166450 0.978793
vn -0.119388 0.166638 0.978764
vn -0.125707 0.132254 0.983212
vn 0.715599 0.002633 0.698507
vn 0.818909 -0.102201 0.564751
vn 0.409417 -0.241487 0.879808
vn 0.407670 -0.223596 0.885330
vn -0.119407 -0.166450 0.978793
vn -0.143660 -0.109392 0.983563
vn 0.898796 0.013870 0.438147
vn 0.920878 -0.007633 0.389777
vn 0.818909 -0.102201 0.564751
vn 0.799301 -0.157124 0.580025
vn 0.407670 -0.223596 0.885330
vn 0.409417 -0.241487 0.879808
vn 0.801219 0.120579 0.586097
vn 0.929140 0.001754 0.369724
vn 0.688199 0.007451 0.725483
vn 0.999752 0.001759 0.022180
vn 0.999171 0.040551 0.003523
vn 0.920472 0.043985 0.388325
vn 0.929140 0.001754 0.369724
vn 0.944575 0.005913 -0.328242
vn 0.936967 0.040826 -0.347025
vn 0.725980 0.006083 -0.687689
vn 0.741185 0.041569 -0.670013
vn 0.394221 0.001893 -0.919014
vn 0.413787 0.042029 -0.909403
vn -0.025532 0.001835 -0.999672
vn -0.048337 0.044323 -0.997847
vn -0.441688 0.005419 -0.897152
vn -0.459980 0.046686 -0.886701
vn -0.680699 0.003508 -0.732555
vn -0.651236 0.045140 -0.757531
vn -0.902309 -0.004095 -0.431070
vn -0.882848 0.043041 -0.467682
vn -0.997937 -0.005785 0.063948
vn -0.995712 0.040347 0.083245
vn -0.912848 -0.001725 0.408297
vn -0.902608 0.038552 0.428734
vn -0.729137 0.002125 0.684364
vn -0.712346 0.044117 0.700441
vn -0.355897 0.006325 0.934504
vn -0.316466 0.048647 0.947356
vn 0.048176 0.012096 0.998766
vn 0.068633 0.043625 0.996688
vn 0.048176 0.012096 0.998766
vn -0.125707 0.132254 0.983212
vn 0.381657 0.235076 0.893911
vn 0.367996 0.013524 0.929729
vn 0.367996 0.013524 0.929729
vn 0.358937 0.042537 0.932392
vn 0.367996 0.013524 0.929729
vn 0.381657 0.235076 0.893911
vn 0.801219 0.120579 0.586097
vn 0.688199 0.007451 0.725483
vn 0.688199 0.007451 0.725483
vn 0.666754 0.046681 0.743815
vn 0.029089 -0.998991 0.034229
vn 0.029089 -0.998991 0.034229
vn -0.000000 -1.000000 0.000430
vn -0.000000 -1.000000 0.000430
vn 0.037077 0.982005 0.185181
vn 0.037077 0.982005 0.185181
vn 0.157959 0.924894 0.345860
vn 0.157959 0.924894 0.345860
vn 0.801219 0.120579 0.586097
vn 0.799338 0.157239 0.579944
vn 0.799301 -0.157124 0.580025
vn 0.818909 -0.102201 0.564751
vn 0.381657 0.235076 0.893911
vn 0.407723 0.223781 0.885259
vn 0.799338 0.157239 0.579944
vn 0.801219 0.120579 0.586097
vn -0.125707 0.132254 0.983212
vn -0.119388 0.166638 0.978764
vn 0.407723 0.223781 0.885259
vn 0.381657 0.235076 0.893911
vn 0.407670 -0.223596 0.885330
vn 0.799301 -0.157124 0.580025
vn 0.799338 0.157239 0.579944
vn 0.407723 0.223781 0.885259
vn 0.407723 0.223781 0.885259
vn -0.119388 0.166638 0.978764
vn -0.119407 -0.166450 0.978793
vn 0.407670 -0.223596 0.885330
vn -0.015033 -0.999675 -0.020583
vn 0.058120 -0.995994 0.067961
vn -0.015033 -0.999675 -0.020583
vn -0.028062 -0.999432 0.018647
vn -0.028062 -0.999432 0.018647
vn 0.016256 -0.997177 0.073309
vn 0.016256 -0.997177 0.073309
vn 0.000000 -1.000000 0.000431
vn 0.000000 -1.000000 0.000431
vn -0.000000 -1.000000 0.000430
vn -0.000000 -1.000000 0.000430
vn -0.000001 -1.000000 0.000428
vn -0.007024 0.996324 0.085376
vn -0.007024 0.996324 0.085376
vn 0.035856 0.996404 0.076767
vn 0.035856 0.996404 0.076767
vn 0.000003 1.000000 -0.000426
vn 0.000003 1.000000 -0.000426
vn -0.046340 0.996620 -0.067834
vn -0.046340 0.996620 -0.067834
vn -0.092377 0.986558 -0.134795
vn -0.092377 0.986558 -0.134795
vn -0.092377 0.986558 -0.134795
vn -0.092377 0.986558 -0.134795
vn 0.920878 -0.007633 0.389777
vn 0.929140 0.001754 0.369724
vn 0.801219 0.120579 0.586097
vn 0.818909 -0.102201 0.564751
vn -0.355897 0.006325 0.934504
vn -0.125707 0.132254 0.983212
vn 0.048176 0.012096 0.998766
s off
usemtl falling_rock_1:default1
f 1/1/1 17/2/2 32/3/3 16/4/4
s 1
f 1/1/5 34/70/6 33/71/7 2/5/8
s off
f 2/5/9 18/6/10 17/2/11 1/1/12
s 1
f 2/5/8 33/71/7 48/73/13 3/7/14
s off
f 3/7/15 19/8/16 18/6/17 2/5/18
s 1
f 3/7/14 48/73/13 47/75/19 4/9/20
s off
f 4/9/21 20/10/22 19/8/23 3/7/24
s 1
f 4/9/20 47/75/19 46/77/25 5/66/26
s off
f 5/66/27 21/11/28 20/10/29 4/9/30
s 1
f 5/66/26 46/77/25 45/65/31 6/67/32
s off
f 6/67/33 22/68/34 21/11/35 5/66/36
s 1
f 6/13/32 45/12/31 44/15/37 7/16/38
s off
f 7/16/39 23/17/40 22/14/41 6/13/42
s 1
f 7/16/38 44/15/37 43/18/43 8/19/44
s off
f 8/19/45 24/20/46 23/17/47 7/16/48
s 1
f 8/19/44 43/18/43 42/21/49 9/22/50
s off
f 9/22/51 25/23/52 24/20/53 8/19/54
s 1
f 9/22/50 42/21/49 41/24/55 10/25/56
s off
f 10/25/57 26/26/58 25/23/59 9/22/60
s 1
f 10/25/56 41/24/55 40/27/61 11/28/62
s off
f 11/28/63 27/29/64 26/26/65 10/25/66
s 1
f 11/28/62 40/27/61 39/30/67 12/31/68
s off
f 12/31/69 28/32/70 27/29/71 11/28/72
s 1
f 12/31/68 39/30/67 38/33/73 13/34/74
f 13/34/74 38/33/73 37/35/75 14/36/76
s off
f 13/34/77 67/37/78 28/32/79 12/31/80
f 13/34/81 73/38/82 72/39/83 67/37/84
s 1
f 14/36/76 37/35/75 36/40/85 15/41/86
s off
f 14/36/87 68/42/88 73/38/89 13/34/90
s 1
f 15/41/86 36/40/85 35/43/91 16/4/92
s off
f 15/41/93 70/44/94 68/42/95 14/36/96
f 65/45/97 32/3/98 31/46/99
s 1
f 16/4/92 35/43/91 34/70/6 1/1/5
s 2
f 17/2/100 49/47/101 64/48/102 32/3/103
f 18/6/104 50/49/105 49/47/101 17/2/100
f 19/8/106 51/78/107 50/49/105 18/6/104
f 20/10/108 52/82/109 51/78/107 19/8/106
f 21/11/110 53/84/111 52/82/109 20/10/108
f 22/68/112 54/85/113 53/84/111 21/11/110
f 23/17/114 55/51/115 54/50/113 22/14/112
f 24/20/116 56/52/117 55/51/115 23/17/114
f 25/23/118 57/53/119 56/52/117 24/20/116
f 26/26/120 58/54/121 57/53/119 25/23/118
f 27/29/122 59/55/123 58/54/121 26/26/120
f 28/32/124 60/56/125 59/55/123 27/29/122
f 29/57/126 61/58/127 60/56/125 28/32/124
s off
f 29/57/128 67/37/129 66/59/130 30/60/131
s 2
f 30/60/132 62/61/133 61/58/127 29/57/126
s off
f 30/60/134 66/59/135 65/45/136 31/46/137
s 2
f 31/46/138 63/62/139 62/61/133 30/60/132
f 32/3/103 64/48/102 63/62/139 31/46/138
s 3
f 39/69/140 36/72/141 37/74/142 38/76/143
s 4
f 64/79/144 61/80/145 62/81/146 63/83/147
s off
f 65/45/148 71/63/149 70/44/150 15/41/151
f 66/59/152 69/64/153 71/63/154 65/45/155
f 67/37/156 72/39/157 69/64/158 66/59/159
f 68/42/160 70/44/161 71/63/162 69/64/163
f 69/64/164 72/39/165 73/38/166 68/42/167
s 3
f 34/86/168 35/87/169 36/72/141 39/69/140 40/88/170
f 34/86/168 40/88/170 41/89/171 33/90/172
f 33/90/172 41/89/171 42/91/173 48/92/174
f 48/92/174 42/91/173 43/93/175 47/94/176
f 47/94/176 43/93/175 44/95/177 46/96/178
f 46/96/178 44/95/177 45/97/179
s 4
f 49/98/180 60/99/181 61/80/145 64/79/144
f 50/100/182 59/101/183 60/99/181 49/98/180
f 50/100/182 51/102/184 58/103/185 59/101/183
f 58/103/185 51/102/184 52/104/186 57/105/187
f 57/105/187 52/104/186 53/106/188 54/107/189 55/108/190 56/109/191
s off
f 16/4/192 32/3/193 65/45/194 15/41/195
f 28/32/196 67/37/197 29/57/198
